<?xml version="1.0" encoding="utf-8"?>
<svg version="1.1" id="Слой_1" xmlns="http://www.w3.org/2000/svg" xmlns:xlink="http://www.w3.org/1999/xlink" x="0px" y="0px"
	 viewBox="95 221 801 351" enable-background="new 95 221 801 351" xml:space="preserve">
<path fill="#E1DFDD" d="M750.195,224.121H220.259c-2.478,0-4.491,2.01-4.491,4.492v332.669c0,2.478,2.013,4.488,4.491,4.488h529.936
	c2.478,0,4.488-2.01,4.488-4.488V228.613C754.683,226.131,752.673,224.121,750.195,224.121z"/>
<path fill="#6264A7" d="M643.168,260.713c-0.567,0.228-1.191,0.337-1.818,0.318c-0.938,0-1.685-0.25-2.25-0.749
	c-0.568-0.509-0.846-1.171-0.846-1.985c0-0.884,0.315-1.592,0.953-2.135c0.637-0.543,1.436-0.812,2.407-0.812
	c0.623,0,1.144,0.075,1.554,0.225v0.905c-0.437-0.22-0.936-0.335-1.444-0.331c-0.636-0.02-1.253,0.188-1.7,0.574
	c-0.449,0.414-0.684,0.964-0.652,1.527c0,0.606,0.205,1.09,0.608,1.448c0.407,0.359,0.942,0.54,1.601,0.54
	c0.609,0,1.136-0.125,1.587-0.368V260.713z M601.525,260.937h-1.249l-1.034-1.473c-0.08-0.121-0.171-0.237-0.271-0.346
	c-0.08-0.086-0.171-0.165-0.271-0.234c-0.089-0.061-0.191-0.107-0.301-0.134c-0.118-0.031-0.242-0.046-0.366-0.044H597.6v2.232
	h-1.062v-5.504h2.125c0.301,0,0.583,0.031,0.836,0.094c0.256,0.062,0.476,0.156,0.667,0.281c0.19,0.122,0.337,0.275,0.443,0.462
	c0.106,0.187,0.161,0.403,0.161,0.649c0,0.194-0.036,0.375-0.102,0.537c-0.066,0.162-0.165,0.306-0.286,0.431
	c-0.128,0.13-0.28,0.24-0.451,0.328c-0.186,0.092-0.385,0.161-0.594,0.206v0.016c0.118,0.056,0.22,0.115,0.308,0.187
	c0.174,0.137,0.334,0.288,0.477,0.449l0.256,0.318L601.525,260.937z M597.605,256.178v1.789h0.89
	c0.157,0.001,0.312-0.022,0.459-0.069c0.272-0.081,0.49-0.257,0.601-0.484c0.058-0.126,0.087-0.261,0.084-0.396
	c0.014-0.233-0.093-0.459-0.293-0.618c-0.24-0.159-0.54-0.238-0.843-0.222H597.605z M602.679,259.218h3.141v-0.343
	c0-0.612-0.169-1.09-0.513-1.436c-0.345-0.346-0.836-0.518-1.466-0.518c-0.601-0.011-1.178,0.199-1.583,0.578
	c-0.435,0.407-0.665,0.945-0.638,1.495c0,0.646,0.195,1.149,0.579,1.508c0.417,0.366,1,0.56,1.598,0.531
	c0.582,0.024,1.16-0.091,1.667-0.334v-0.718c-0.414,0.25-0.864,0.375-1.355,0.375c-0.377,0.019-0.749-0.086-1.037-0.294
	C602.826,259.861,602.69,259.58,602.679,259.218z M604.816,258.59c0.017-0.269-0.078-0.534-0.268-0.749
	c-0.179-0.177-0.444-0.275-0.718-0.265c-0.291-0.004-0.569,0.099-0.766,0.281c-0.216,0.203-0.351,0.461-0.385,0.734H604.816z
	 M608.805,261.031c0.458,0.011,0.911-0.083,1.312-0.271v-0.774c-0.297,0.216-0.673,0.336-1.063,0.34c-0.447,0-0.806-0.119-1.07-0.35
	c-0.267-0.237-0.399-0.559-0.399-0.968c-0.019-0.367,0.133-0.726,0.421-0.999c0.282-0.253,0.649-0.381,1.089-0.381
	c0.372,0.004,0.733,0.112,1.026,0.309v-0.83c-0.319-0.125-0.693-0.19-1.114-0.19c-0.674-0.025-1.329,0.188-1.811,0.59
	c-0.454,0.393-0.678,0.915-0.678,1.561c-0.026,0.526,0.202,1.038,0.631,1.417C607.587,260.856,608.188,261.054,608.805,261.031z
	 M615.056,259.217h-3.14c0.011,0.362,0.146,0.643,0.392,0.843c0.289,0.207,0.66,0.312,1.037,0.293c0.491,0,0.942-0.125,1.356-0.375
	v0.718c-0.508,0.243-1.086,0.358-1.667,0.334c-0.598,0.029-1.182-0.164-1.598-0.531c-0.385-0.359-0.579-0.862-0.579-1.508
	c-0.027-0.551,0.202-1.088,0.637-1.495c0.405-0.378,0.983-0.589,1.583-0.578c0.631,0,1.122,0.172,1.466,0.518
	c0.345,0.346,0.513,0.824,0.513,1.436V259.217z M613.785,257.841c0.19,0.215,0.285,0.48,0.268,0.749h-2.137
	c0.034-0.273,0.168-0.53,0.385-0.734c0.196-0.182,0.475-0.285,0.766-0.281C613.341,257.566,613.606,257.664,613.785,257.841z
	 M620.164,260.938h-1.048v-2.213c0-0.734-0.304-1.099-0.916-1.099c-0.302-0.006-0.591,0.105-0.784,0.303
	c-0.212,0.214-0.323,0.488-0.312,0.768v2.241h-1.048v-3.93h1.048v0.656h0.019c0.292-0.47,0.871-0.758,1.495-0.746
	c0.502,0,0.883,0.141,1.151,0.418c0.267,0.278,0.395,0.677,0.395,1.202V260.938z M623.066,261.028
	c0.277,0.01,0.553-0.035,0.806-0.131v-0.706c-0.13,0.087-0.292,0.133-0.458,0.131c-0.231,0-0.399-0.053-0.498-0.147
	c-0.095-0.103-0.147-0.268-0.147-0.499v-1.967h1.103v-0.699h-1.103v-1.161l-1.044,0.253v0.908h-0.77v0.699h0.77v2.22
	C621.725,260.663,622.172,261.028,623.066,261.028z M644.618,260.485c0.455,0.376,1.072,0.575,1.704,0.549
	c0.651,0.027,1.286-0.177,1.752-0.565c0.432-0.378,0.649-0.88,0.649-1.508c0-0.637-0.198-1.136-0.601-1.498
	c-0.404-0.362-0.964-0.54-1.686-0.54c-0.661-0.029-1.308,0.171-1.792,0.556c-0.444,0.368-0.663,0.884-0.663,1.545
	C643.952,259.565,644.182,260.092,644.618,260.485z M646.372,257.632c-0.409,0-0.731,0.125-0.969,0.365
	c-0.256,0.288-0.382,0.645-0.356,1.005c-0.023,0.35,0.105,0.695,0.36,0.971c0.24,0.237,0.595,0.368,0.963,0.356
	c0.365,0.02,0.719-0.11,0.953-0.35c0.22-0.231,0.33-0.562,0.33-0.993c0-0.431-0.11-0.765-0.33-0.999
	C647.104,257.754,646.785,257.632,646.372,257.632z M646.372,257.632h-0.002h0.004H646.372z M652.848,260.941h1.049v-2.401
	c0-0.524-0.129-0.924-0.396-1.202c-0.268-0.278-0.649-0.418-1.151-0.418c-0.624-0.012-1.203,0.276-1.495,0.746h-0.018v-0.656h-1.052
	v3.93h1.052v-2.241c-0.012-0.28,0.099-0.553,0.311-0.768c0.194-0.198,0.482-0.309,0.784-0.303c0.612,0,0.916,0.365,0.916,1.099
	V260.941z M657.601,260.9c-0.254,0.096-0.53,0.141-0.807,0.131c-0.894,0-1.341-0.365-1.341-1.099v-2.223h-0.769v-0.696h0.769v-0.908
	l1.045-0.253v1.161h1.103v0.699h-1.103v1.967c0,0.231,0.047,0.397,0.146,0.5c0.099,0.094,0.268,0.147,0.495,0.147
	c0.167,0.002,0.33-0.044,0.462-0.131V260.9z M661.03,260.941h1.012v-2.553c0-0.98-0.583-1.467-1.748-1.467
	c-0.591-0.011-1.174,0.116-1.686,0.368v0.78c0.408-0.314,0.938-0.487,1.488-0.487c0.626,0,0.934,0.281,0.934,0.843l-1.367,0.165
	c-1.004,0.122-1.506,0.556-1.506,1.296c-0.014,0.312,0.127,0.615,0.389,0.833c0.292,0.22,0.674,0.332,1.062,0.312
	c0.588,0.015,1.134-0.258,1.404-0.702h0.018V260.941z M661.034,259.011l-0.004,0.001v-0.001H661.034z M661.03,259.012v0.343
	c0.011,0.265-0.1,0.523-0.311,0.718c-0.202,0.19-0.491,0.295-0.792,0.287c-0.23,0-0.425-0.056-0.56-0.162
	c-0.136-0.106-0.209-0.243-0.209-0.406c0-0.228,0.073-0.384,0.227-0.478c0.154-0.094,0.378-0.156,0.678-0.187L661.03,259.012z
	 M665.31,261.034c0.458,0.011,0.911-0.083,1.312-0.272v-0.774c-0.296,0.216-0.672,0.336-1.062,0.34c-0.447,0-0.807-0.119-1.07-0.35
	c-0.268-0.237-0.4-0.559-0.4-0.968c-0.018-0.367,0.133-0.726,0.422-0.999c0.282-0.253,0.648-0.381,1.088-0.381
	c0.373,0.003,0.733,0.112,1.026,0.309v-0.83c-0.319-0.125-0.693-0.187-1.114-0.187c-0.673-0.026-1.328,0.186-1.81,0.587
	c-0.455,0.393-0.678,0.915-0.678,1.561c-0.026,0.526,0.201,1.038,0.63,1.417C664.092,260.859,664.693,261.058,665.31,261.034z
	 M670.092,260.9c-0.253,0.096-0.529,0.141-0.806,0.131c-0.895,0-1.342-0.365-1.342-1.099v-2.223h-0.769v-0.696h0.769v-0.908
	l1.045-0.253v1.161h1.103v0.699h-1.103v1.967c0,0.231,0.047,0.397,0.146,0.5c0.099,0.094,0.268,0.147,0.495,0.147
	c0.167,0.002,0.33-0.044,0.462-0.131V260.9z M670.703,259.992v0.827c0.415,0.15,0.862,0.224,1.312,0.215
	c0.25,0.003,0.5-0.021,0.744-0.069c0.235-0.047,0.443-0.122,0.623-0.219c0.18-0.097,0.326-0.219,0.436-0.368
	c0.106-0.147,0.161-0.325,0.161-0.521c0.016-0.277-0.111-0.546-0.348-0.737c-0.11-0.09-0.245-0.175-0.403-0.247
	c-0.157-0.072-0.333-0.14-0.531-0.209l-0.403-0.122c-0.114-0.037-0.213-0.078-0.297-0.122c-0.075-0.04-0.139-0.093-0.187-0.156
	c-0.04-0.062-0.062-0.131-0.062-0.219c0-0.066,0.021-0.131,0.062-0.187c0.045-0.06,0.105-0.111,0.176-0.15
	c0.085-0.043,0.178-0.074,0.275-0.094c0.511-0.09,1.044,0,1.476,0.25v-0.78c-0.59-0.183-1.232-0.214-1.843-0.087
	c-0.215,0.044-0.419,0.119-0.604,0.222c-0.173,0.093-0.318,0.218-0.426,0.365c-0.102,0.144-0.157,0.309-0.157,0.5
	c-0.02,0.263,0.091,0.521,0.304,0.712c0.112,0.098,0.24,0.18,0.381,0.243c0.295,0.138,0.605,0.249,0.927,0.331
	c0.121,0.041,0.231,0.081,0.323,0.131c0.091,0.05,0.168,0.106,0.22,0.169c0.051,0.062,0.08,0.14,0.08,0.228
	c0,0.318-0.315,0.474-0.945,0.474C671.528,260.373,671.072,260.239,670.703,259.992z"/>
<path fill="#FFFFFF" d="M582.038,245.733h168.111v316.938H582.038V245.733z"/>
<path fill="#E1DFDD" d="M638.25,417.252h67.153v6.736H638.25V417.252z M638.25,429.051h46.487v4.488H638.25V429.051z
	 M738.754,418.376h-20.343v4.488h20.343V418.376z"/>
<path fill="#E2E2F6" d="M581.924,274.062h168.55v74.912h-168.55V274.062z"/>
<path opacity="0.6" fill="#B3AFAB" enable-background="new    " d="M722.758,280.305h-12.59v4.488h12.59V280.305z M744.743,280.305
	h-12.59v4.488h12.59V280.305z"/>
<path fill="#E1DFDD" d="M675.035,373.148h-36.788v6.736h36.788V373.148z M638.25,460.326h50.711v6.736H638.25V460.326z
	 M638.25,472.125h50.711v4.488H638.25V472.125z M738.754,461.45h-12.59v4.488h12.59V461.45z M638.296,505.251h67.153v6.736h-67.153
	V505.251z M684.783,517.05h-46.487v4.488h46.487V517.05z M721.565,506.375h17.229v4.488h-17.229V506.375z M638.247,384.943h69.963
	v4.489h-69.963V384.943z M738.751,374.269h-12.59v4.488h12.59V374.269z"/>
<ellipse fill="#E1DFDD" cx="610.34" cy="426.045" rx="14.539" ry="12.385"/>
<radialGradient id="SVGID_1_" cx="178.3905" cy="759.0052" r="1" gradientTransform="matrix(8.183 0 0 -6.4716 -849.2733 5343.1279)" gradientUnits="userSpaceOnUse">
	<stop  offset="0.067" style="stop-color:#9B643D"/>
	<stop  offset="0.847" style="stop-color:#E0BB95"/>
</radialGradient>
<path fill="url(#SVGID_1_)" d="M610.341,438.431c1.715,0,3.335-0.3,4.863-0.762c-0.457-0.28-0.729-0.729-0.733-1.208v-5.357
	l-7.424,0.2l-0.008,5.316c0,0.572-0.469,1.031-1.099,1.171C607.34,438.172,608.798,438.431,610.341,438.431z"/>
<path fill="#EE8F94" d="M619.248,415.626l-18.291,0.087l-1.323-0.58l1.319-0.593l18.284-0.091c0.323,0,0.583,0.262,0.586,0.587
	C619.823,415.357,619.567,415.623,619.248,415.626z"/>
<linearGradient id="SVGID_2_" gradientUnits="userSpaceOnUse" x1="608.5706" y1="385.7653" x2="611.7026" y2="376.2282" gradientTransform="matrix(1 0 0 -1 0 794)">
	<stop  offset="0.269" style="stop-color:#594539"/>
	<stop  offset="0.811" style="stop-color:#463228"/>
</linearGradient>
<ellipse fill="url(#SVGID_2_)" cx="610.308" cy="413.525" rx="5.859" ry="4.991"/>
<ellipse fill="#59453C" cx="610.289" cy="425.227" rx="11.542" ry="9.832"/>
<ellipse fill="#E0BB95" cx="610.337" cy="427.118" rx="8.658" ry="8.552"/>
<path fill="#E0BB95" d="M600.334,428.205c0.051-0.515,0.352-0.988,0.832-1.305c0.459-0.329,1.056-0.482,1.652-0.424
	c0.609,0.052,1.173,0.297,1.58,0.686c0.357,0.421,0.534,0.933,0.502,1.452c-0.063,0.5-0.365,0.957-0.836,1.261
	c-0.465,0.351-1.087,0.514-1.704,0.446c-0.626-0.053-1.136-0.29-1.531-0.711C600.434,429.224,600.254,428.712,600.334,428.205z
	 M615.683,428.205c0.051-0.515,0.352-0.988,0.832-1.305c0.459-0.329,1.056-0.482,1.652-0.424c0.609,0.052,1.173,0.297,1.58,0.686
	c0.357,0.421,0.534,0.933,0.502,1.452c-0.063,0.5-0.365,0.957-0.836,1.261c-0.465,0.351-1.087,0.514-1.704,0.446
	c-0.626-0.053-1.136-0.29-1.532-0.711C615.783,429.224,615.603,428.712,615.683,428.205z"/>
<path fill="#594539" d="M602.192,419.974c-2.111,2.491-2.514,5.05-1.682,7.772c1.29-1.639,2.565-1.099,4.39-1.505
	c2.345-0.527,4.921-0.415,6.687-1.957c2.271-1.979,2.458-5.247,2.271-6.885C613.811,416.974,605.511,416.278,602.192,419.974z"/>
<path fill="#594539" d="M613.444,418.822c-0.806,1.683-0.55,7.689,6.706,8.023c0.11-2.522,0.422-4.989-1.257-6.977
	C617.262,418.076,614.679,416.244,613.444,418.822z"/>
<path fill="#9B643D" d="M610.878,428.356c0,1.574,1.442,2.873,3.286,2.961c1.844-0.088,3.285-1.387,3.285-2.961
	c0-1.573-1.441-2.872-3.285-2.96C612.32,425.484,610.878,426.783,610.878,428.356z M611.695,428.357c0-1.186,1.08-2.167,2.469-2.243
	c1.388,0.076,2.468,1.057,2.468,2.243c0,1.185-1.08,2.166-2.468,2.242C612.775,430.523,611.695,429.542,611.695,428.357z
	 M606.6,431.395c-1.408,0.001-2.679-0.72-3.219-1.828c-0.54-1.108-0.243-2.384,0.752-3.233c0.996-0.849,2.493-1.103,3.795-0.644
	c1.301,0.458,2.15,1.54,2.15,2.74C610.078,430.066,608.521,431.394,606.6,431.395z M604.201,427.281
	c0.502-0.713,1.424-1.132,2.399-1.089c1.401,0.061,2.501,1.046,2.503,2.241c0.002,1.195-1.095,2.183-2.496,2.248
	c-0.974,0.045-1.898-0.372-2.402-1.084C603.701,428.885,603.7,427.994,604.201,427.281z"/>
<path fill="#9B643D" d="M609.655,428.118c-0.232,0-0.422-0.16-0.423-0.358s0.187-0.36,0.42-0.36l1.436-0.016h0.004
	c0.233-0.002,0.423,0.158,0.425,0.356c0.002,0.198-0.185,0.36-0.418,0.362l-1.44,0.016H609.655z"/>
<ellipse fill="#33312D" cx="606.838" cy="428.336" rx="0.616" ry="0.986"/>
<ellipse fill="#33312D" cx="613.877" cy="428.367" rx="0.616" ry="0.986"/>
<path fill="#BF8F68" d="M611.55,433.109c-0.56,0.343-1.22,0.38-1.905,0.33c-0.664-0.128-1.327-0.496-1.576-1.02
	c-0.056-0.12-0.018-0.257,0.095-0.343c0.113-0.087,0.276-0.104,0.411-0.044l0.036,0.015c0.466,0.209,0.799,0.403,1.254,0.443
	c0.421,0.135,0.923,0.063,1.414,0.072h0.073c0.154,0.001,0.289,0.087,0.335,0.212C611.732,432.899,611.677,433.034,611.55,433.109z"
	/>
<path fill="#E47B93" d="M669.863,255.334h73.283v9.364h-73.283V255.334z"/>
<path fill="#4D95D6" d="M596.58,255.334h73.283v9.364H596.58V255.334z"/>
<ellipse fill="#B3AFAB" cx="610.341" cy="514.134" rx="14.539" ry="12.385"/>
<radialGradient id="SVGID_3_" cx="173.0562" cy="737.6855" r="1" gradientTransform="matrix(5.6068 0 0 -3.9773 -359.1372 3453.2083)" gradientUnits="userSpaceOnUse">
	<stop  offset="0" style="stop-color:#9A6541"/>
	<stop  offset="1" style="stop-color:#BE906B"/>
</radialGradient>
<path fill="url(#SVGID_3_)" d="M606.618,526.058c1.212,0.292,2.464,0.448,3.723,0.462c1.525,0,2.968-0.256,4.346-0.624l0.081-5.157
	h-8.15V526.058L606.618,526.058z"/>
<path fill="#594539" d="M614.423,505.223c-2.583,1.483-4.078,3.168-4.078,3.168s4.21,0.113,7.013,4.329
	c0.414,0.647,0.461,1.976,0.146,3.986c-0.22,2.035-0.117,3.343,0.154,3.855c0.334,0.912,1.576,2.778,5.364,2.856
	c4.471,0.094,6.149-2.497,6.035-2.475c-2.755,0.499-2.865-2.535-2.865-2.535c0.506-7.253,0.454-9.438,0.201-10.393
	c-0.905-3.406-3.719-4.005-4.946-4.264C619.38,503.397,617.039,503.887,614.423,505.223z"/>
<path fill="#594539" d="M618.622,505.9c-2.202-2.028-4.884-3.068-8.047-3.121c-3.158-0.034-5.884,0.936-8.171,2.912
	c-2.271,1.976-3.437,4.379-3.484,7.21c-0.052,2.847,1.026,5.282,3.224,7.311c2.199,2.028,4.888,3.058,8.047,3.099
	c3.158,0.041,5.884-0.93,8.174-2.909c2.272-1.966,3.434-4.37,3.485-7.21C621.901,510.358,620.824,507.929,618.622,505.9z"/>
<ellipse fill="#BE906B" cx="610.664" cy="514.862" rx="8.2" ry="9.586"/>
<radialGradient id="SVGID_4_" cx="162.5963" cy="751.8881" r="1" gradientTransform="matrix(3.4667 0 0 -5.3513 46.5548 4540.8535)" gradientUnits="userSpaceOnUse">
	<stop  offset="0" style="stop-color:#956D4E;stop-opacity:0.878"/>
	<stop  offset="0.937" style="stop-color:#A7754B;stop-opacity:0.01"/>
</radialGradient>
<path fill="url(#SVGID_4_)" d="M610.539,512.405h-5.46v8.429h5.46V512.405z"/>
<path fill="#BE906B" d="M609.908,518.445c0.418,0.178,0.631,0.284,0.631,0.316c0,0,1.282-2.389,0-4.19l-0.173,0.634
	c-0.208,0.506-1.436,1.208-1.517,1.998C608.831,517.496,608.974,518.149,609.908,518.445z"/>
<path fill="#9A6541" d="M613.122,520.159c-0.22,0.721-0.967,1.186-1.821,1.398c-0.876,0.056-1.719-0.125-2.246-0.587
	c-0.138-0.124-0.171-0.309-0.083-0.463c0.088-0.154,0.278-0.245,0.478-0.23h0.03c0.63,0.059,1.125,0.191,1.557,0.063
	c0.455,0.009,0.836-0.284,1.268-0.531l0.117-0.072c0.158-0.091,0.366-0.089,0.521,0.005
	C613.099,519.835,613.17,520.001,613.122,520.159z"/>
<ellipse fill="#3A312E" cx="606.831" cy="515.377" rx="0.762" ry="1.08"/>
<ellipse fill="#3A312E" cx="614.229" cy="515.408" rx="0.762" ry="1.08"/>
<ellipse fill="#BE906B" cx="602.657" cy="516.319" rx="2.305" ry="1.964"/>
<ellipse fill="#BE906B" cx="618.622" cy="516.319" rx="2.305" ry="1.964"/>
<path fill="#594539" d="M619.244,507.342c-0.084,0.022-0.498,2.182-1.425,2.841c-2.132-2.794-4.987-2.01-9.223,1.461
	c-3.517,2.884-9.929,2.909-12.384-2.872c0.769,0.621,1.795,0.933,4.019-1.685c2.763-3.247,6.292-4.626,10.48-4.302
	C614.866,503.107,617.16,504.696,619.244,507.342z"/>
<ellipse fill="#8B8CC4" cx="610.341" cy="381.813" rx="14.539" ry="12.385"/>
<radialGradient id="SVGID_5_" cx="170.9802" cy="750.9695" r="1" gradientTransform="matrix(4.9948 0 0 -5.2343 -243.649 4318.5952)" gradientUnits="userSpaceOnUse">
	<stop  offset="0" style="stop-color:#9B643D"/>
	<stop  offset="0.451" style="stop-color:#B98963"/>
	<stop  offset="0.99" style="stop-color:#E0BB95"/>
</radialGradient>
<path fill="url(#SVGID_5_)" d="M607.464,386.442v5.684c-0.029,0.809-0.139,1.28-0.568,1.686c1.107,0.231,2.25,0.387,3.445,0.387
	c1.382,0,2.69-0.215,3.958-0.521c-0.293-0.331-0.466-0.765-0.403-1.458l0.036-5.775L607.464,386.442z"/>
<path fill="#FADCBD" d="M620.791,378.18c-0.084,5.297-4.822,9.523-10.589,9.442c-5.767-0.081-10.366-4.439-10.281-9.739
	c0.084-5.3,2.528-9.439,10.585-9.439C618.56,368.444,620.876,372.883,620.791,378.18z"/>
<path fill="#E0BB95" d="M618.109,384.847h-3.434v-4.092h3.434c1.149,0,2.081,0.794,2.081,1.773v0.546
	C620.19,384.053,619.258,384.847,618.109,384.847z M602.683,384.847h3.433v-4.092h-3.433c-1.151,0-2.082,0.796-2.082,1.773v0.546
	C600.601,384.053,601.533,384.847,602.683,384.847z"/>
<path fill="#EE8F94" d="M603.006,389.173c-1.516-0.001-2.744-1.05-2.742-2.341c0.002-1.291,1.233-2.337,2.749-2.335
	c0.98,0.001,1.886,0.448,2.375,1.172s0.488,1.615-0.004,2.338C604.893,388.73,603.986,389.174,603.006,389.173z M617.636,389.173
	c-1.447-0.078-2.574-1.101-2.574-2.336c0-1.236,1.127-2.259,2.574-2.337c1.448,0.078,2.575,1.101,2.575,2.337
	C620.211,388.072,619.084,389.095,617.636,389.173z M601.517,386.121c0.311-0.443,0.883-0.705,1.489-0.681
	c0.877,0.034,1.568,0.65,1.569,1.398c0.001,0.749-0.688,1.366-1.566,1.402c-0.605,0.025-1.178-0.236-1.49-0.679
	C601.207,387.118,601.206,386.565,601.517,386.121z"/>
<path fill="#FADCBD" d="M617.435,371.765c-1.063-5.212-8.164-6.202-12.623-4.632c-3.906,1.374-5.856,4.039-7.977,1.511
	c0,0-3.06,2.304-2.224,5.362c0.835,3.059,4.869,5.275,7.779,4.224c1.934-0.7,3.73-3.481,7.456-5.251
	C612.939,371.512,617.435,371.765,617.435,371.765z"/>
<path fill="#E0BB95" d="M618.432,380.708c0,5.204-3.646,9.424-8.142,9.424c-4.496,0-8.141-4.22-8.141-9.424
	c0-5.203,3.645-8.942,8.141-8.942C614.786,371.766,618.432,375.505,618.432,380.708z"/>
<path fill="#3A312E" d="M613.708,380.189c0.389-0.005,0.711,0.443,0.72,1c0.009,0.557-0.298,1.012-0.687,1.017
	c-0.389,0.005-0.711-0.443-0.72-1C613.012,380.649,613.32,380.193,613.708,380.189z"/>
<radialGradient id="SVGID_6_" cx="172.0077" cy="772.4965" r="1" gradientTransform="matrix(5.28 0 0 -10.7299 -295.0177 8672.0557)" gradientUnits="userSpaceOnUse">
	<stop  offset="0" style="stop-color:#9B643D"/>
	<stop  offset="0.882" style="stop-color:#BA8A63;stop-opacity:0.118"/>
	<stop  offset="1" style="stop-color:#BF8F68;stop-opacity:0.01"/>
</radialGradient>
<path fill="url(#SVGID_6_)" d="M610.839,376.4l-0.194,2.785c-0.037,1.445-0.927,2.706-1.55,3.417c-0.3,0.35-0.242,0.837,0.135,1.127
	c0.609,0.481,1.378,1.218,1.407,1.91l-0.098,1.661l-4.888,0.359l-0.352-11.206L610.839,376.4L610.839,376.4z"/>
<path fill="#BF8F68" d="M609.237,386.408c1.356,0.04,1.899-0.104,3.126-0.587l0.022-0.01c0.089-0.035,0.193-0.026,0.271,0.024
	c0.079,0.049,0.12,0.131,0.107,0.214c-0.103,0.689-0.821,1.186-1.62,1.373c-0.817,0.131-1.722-0.094-2.147-0.662
	c-0.056-0.072-0.059-0.165-0.008-0.24C609.039,386.445,609.136,386.402,609.237,386.408z"/>
<path fill="#3A312E" d="M606.859,380.185c0.389-0.005,0.711,0.443,0.72,1c0.009,0.557-0.298,1.012-0.687,1.017
	c-0.389,0.005-0.711-0.443-0.72-1C606.163,380.645,606.471,380.189,606.859,380.185z"/>
<path fill="#FADCBD" d="M619.139,373.333c0,0-4.25-2.151-8.849-2.151c-4.598,0-8.874,2.148-8.874,2.148l-1.056,7.372l1.803,0.184
	l1.458-5.434c0.146-0.453,0.629-0.767,1.18-0.768h10.952c0.55,0,1.034,0.319,1.18,0.771l1.499,5.431l1.759-0.181L619.139,373.333z"
	/>
<ellipse fill="#E1DFDD" cx="610.495" cy="468.894" rx="14.539" ry="12.385"/>
<radialGradient id="SVGID_7_" cx="166.8754" cy="752.5982" r="1" gradientTransform="matrix(4.1082 0 0 -5.4453 -79.1643 4566.9058)" gradientUnits="userSpaceOnUse">
	<stop  offset="0" style="stop-color:#9B643D"/>
	<stop  offset="1" style="stop-color:#BF8F68;stop-opacity:0.01"/>
</radialGradient>
<path fill="url(#SVGID_7_)" d="M609.876,470.109c0.043-0.968-2.02-0.862-0.931-2.404c0.337-0.481,0.615-1.414,1-2.372l1.521,0.068
	l-0.22,4.789L609.876,470.109z"/>
<path fill="#8B8CC4" d="M610.495,481.283c3.62,0,6.888-1.168,9.431-3.031c-2.098-1.435-2.619-3.975-1.216-5.931l1.213-1.676
	l-9.509,0.368l-9.512-0.368l1.209,1.679c1.4,1.936,0.872,4.414-1.143,5.862C603.526,480.09,606.831,481.283,610.495,481.283z"/>
<ellipse fill="#8B8CC7" cx="610.422" cy="465.433" rx="11.047" ry="10.266"/>
<radialGradient id="SVGID_8_" cx="183.0567" cy="765.4075" r="1" gradientTransform="matrix(13.6822 0 0 -7.9732 -1901.7341 6585.3828)" gradientUnits="userSpaceOnUse">
	<stop  offset="0" style="stop-color:#4B4C75"/>
	<stop  offset="1" style="stop-color:#6D6FAB;stop-opacity:0.01"/>
</radialGradient>
<path fill="url(#SVGID_8_)" d="M602.089,472.178c2.235,2.653,4.086,6.224,8.472,5.234c2.33-0.527,3.455-2.122,7.24-0.793
	c0,0-0.953-1.211-0.458-3.848c0.33-1.758,0.462-4.614,0.462-4.614S597.89,467.202,602.089,472.178z"/>
<ellipse fill="#E0BB95" cx="610.422" cy="467.184" rx="7.794" ry="7.245"/>
<path fill="#6F50A1" d="M604.676,470.876l0.03,0.022L604.676,470.876z"/>
<radialGradient id="SVGID_9_" cx="224.0381" cy="843.8782" r="1" gradientTransform="matrix(-3.1542 0.1824 0.243 4.202 1111.9969 -3118.5127)" gradientUnits="userSpaceOnUse">
	<stop  offset="0" style="stop-color:#9B643D"/>
	<stop  offset="1" style="stop-color:#BF8F68;stop-opacity:0.01"/>
</radialGradient>
<path fill="url(#SVGID_9_)" d="M610.517,470.043c0.027-0.273-0.142-0.533-0.429-0.658c-0.568-0.256-1.253-0.687-0.498-1.683
	c0.348-0.462,0.825-0.74,0.678-2.794l-4.386-0.1l-0.147,6.337l4.746,0.047L610.517,470.043z"/>
<path fill="#484643" d="M607.416,467.352c0.363,0,0.653-0.43,0.645-0.958c-0.007-0.527-0.304-0.952-0.667-0.949
	c-0.362,0-0.652,0.431-0.645,0.958C606.757,466.931,607.05,467.356,607.416,467.352z M613.515,467.352
	c0.359,0,0.652-0.427,0.652-0.955c0-0.527-0.297-0.952-0.66-0.952c-0.363,0-0.656,0.425-0.652,0.955
	C612.855,466.925,613.148,467.352,613.515,467.352z"/>
<path fill="#BF8F68" d="M612.602,470.833c-0.194,0.639-0.868,0.883-1.418,1.061c-0.586,0.087-1.308,0.09-1.796-0.353
	c-0.1-0.091-0.131-0.223-0.077-0.34c0.053-0.117,0.18-0.197,0.327-0.206l0.128-0.006c0.392-0.025,0.736-0.019,1.11-0.135
	c0.4-0.031,0.696-0.212,0.975-0.337l0.176-0.075c0.141-0.062,0.311-0.047,0.436,0.037
	C612.587,470.563,612.641,470.702,612.602,470.833z"/>
<path fill="#8B8CC4" d="M609.575,456.197c0,0-2.547,1.772,5.229,5.949c4.47,2.403,3.638,6.667,2.682,8.499
	c0,0,5.569-4.71-0.491-10.047C613.715,457.704,609.575,456.197,609.575,456.197L609.575,456.197z"/>
<g>
	<defs>
		<rect id="SVGID_10_" x="641.229" y="283.426" width="56.183" height="56.183"/>
	</defs>
	<clipPath id="SVGID_11_">
		<use xlink:href="#SVGID_10_"  overflow="visible"/>
	</clipPath>
	<g clip-path="url(#SVGID_11_)">
		<path fill="#465A61" d="M667.674,331.555h3.293v5.586h-3.293V331.555z"/>
		<path fill="#3B4A51" d="M669.32,331.555h1.647v5.586h-1.647V331.555z"/>
		<path fill="#C6E2E7" d="M669.32,283.426c-8.164,0-14.814,6.65-14.814,14.814v13.168c0,8.164,6.65,14.814,14.814,14.814
			s14.814-6.65,14.814-14.814V298.24C684.134,290.076,677.484,283.426,669.32,283.426z"/>
		<path fill="#8EBAC5" d="M684.134,298.24v13.168c0,8.164-6.65,14.814-14.814,14.814v-42.796
			C677.484,283.426,684.134,290.076,684.134,298.24z"/>
		<path fill="#697C86" d="M690.718,311.408c0,11.785-9.612,21.398-21.398,21.398c-11.785,0-21.398-9.613-21.398-21.398
			c0-0.922,0.724-1.646,1.646-1.646s1.646,0.724,1.646,1.646c0,9.975,8.131,18.106,18.106,18.106
			c9.975,0,18.106-8.131,18.106-18.106c0-0.922,0.724-1.646,1.646-1.646S690.718,310.486,690.718,311.408z"/>
		<path fill="#3B4A51" d="M677.551,311.408c0,0.909-0.737,1.646-1.646,1.646c-0.91,0-1.647-0.737-1.647-1.646
			c0-0.909,0.737-1.646,1.647-1.646C676.814,309.762,677.551,310.499,677.551,311.408z"/>
		<path fill="#3B4A51" d="M677.551,304.824c0,0.909-0.737,1.646-1.646,1.646c-0.91,0-1.647-0.737-1.647-1.646
			c0-0.909,0.737-1.646,1.647-1.646C676.814,303.178,677.551,303.915,677.551,304.824z"/>
		<path fill="#3B4A51" d="M677.551,298.24c0,0.909-0.737,1.646-1.646,1.646c-0.91,0-1.647-0.737-1.647-1.646
			s0.737-1.646,1.647-1.646C676.814,296.594,677.551,297.331,677.551,298.24z"/>
		<path fill="#465A61" d="M670.967,291.656c0,0.922-0.724,1.646-1.646,1.646c-0.923,0-1.647-0.724-1.647-1.646
			c0-0.922,0.724-1.646,1.647-1.646C670.243,290.01,670.967,290.734,670.967,291.656z"/>
		<path fill="#465A61" d="M670.967,317.992c0,0.922-0.724,1.646-1.646,1.646c-0.923,0-1.647-0.724-1.647-1.646
			c0-0.922,0.724-1.646,1.647-1.646C670.243,316.346,670.967,317.07,670.967,317.992z"/>
		<path fill="#465A61" d="M670.967,311.408c0,0.922-0.724,1.646-1.646,1.646c-0.923,0-1.647-0.724-1.647-1.646
			c0-0.922,0.724-1.646,1.647-1.646C670.243,309.762,670.967,310.486,670.967,311.408z"/>
		<path fill="#465A61" d="M670.967,304.824c0,0.922-0.724,1.646-1.646,1.646c-0.923,0-1.647-0.724-1.647-1.646
			c0-0.922,0.724-1.646,1.647-1.646C670.243,303.178,670.967,303.902,670.967,304.824z"/>
		<path fill="#465A61" d="M670.967,298.241c0,0.922-0.724,1.646-1.646,1.646c-0.923,0-1.647-0.724-1.647-1.646
			c0-0.922,0.724-1.646,1.647-1.646C670.243,296.595,670.967,297.319,670.967,298.241z"/>
		<path fill="#3B4A51" d="M669.32,319.638v-3.292c0.922,0,1.647,0.724,1.647,1.646C670.967,318.914,670.242,319.638,669.32,319.638z
			"/>
		<path fill="#3B4A51" d="M669.32,313.055v-3.292c0.922,0,1.647,0.724,1.647,1.646C670.967,312.33,670.242,313.055,669.32,313.055z"
			/>
		<path fill="#3B4A51" d="M669.32,306.47v-3.292c0.922,0,1.647,0.724,1.647,1.646C670.967,305.746,670.242,306.47,669.32,306.47z"/>
		<path fill="#3B4A51" d="M669.32,299.887v-3.292c0.922,0,1.647,0.724,1.647,1.646C670.967,299.162,670.242,299.887,669.32,299.887z
			"/>
		<path fill="#3B4A51" d="M669.32,293.302v-3.292c0.922,0,1.647,0.724,1.647,1.646C670.967,292.578,670.242,293.302,669.32,293.302z
			"/>
		<path fill="#596C76" d="M690.718,311.408c0,11.785-9.612,21.398-21.398,21.398v-3.292c9.975,0,18.106-8.131,18.106-18.106
			c0-0.922,0.724-1.646,1.646-1.646S690.718,310.486,690.718,311.408z"/>
		<path fill="#697C86" d="M680.842,337.964c0,0.921-0.724,1.646-1.646,1.646h-19.752c-0.922,0-1.646-0.725-1.646-1.646
			c0-0.922,0.724-1.646,1.646-1.646h19.752C680.118,336.318,680.842,337.042,680.842,337.964z"/>
		<path fill="#596C76" d="M680.842,337.964c0,0.921-0.724,1.646-1.646,1.646h-9.876v-3.292h9.876
			C680.118,336.318,680.842,337.042,680.842,337.964z"/>
	</g>
</g>
<path fill="#4D95D6" d="M211.726,245.733h538.893v-20.245c0-2.478-2.01-4.488-4.488-4.488H216.192c-2.481,0-4.491,2.01-4.491,4.492
	v20.242H211.726z"/>
<path fill="#F3F2F1" d="M743.415,239.728h-63.914c-0.451,0-0.816-0.984-0.817-2.2v-8.086c0.001-1.215,0.366-2.2,0.817-2.2h63.914
	c0.451,0,0.817,0.986,0.817,2.203v8.08C744.232,238.742,743.866,239.728,743.415,239.728z"/>
<path fill="#F3F2F1" d="M662.261,239.728h-63.914c-0.451,0-0.816-0.984-0.817-2.2v-8.086c0.001-1.215,0.366-2.2,0.817-2.2h63.914
	c0.451,0,0.817,0.986,0.817,2.203v8.08C663.078,238.742,662.712,239.728,662.261,239.728z"/>
<path fill="#F3F2F1" d="M581.107,239.728h-63.915c-0.45,0-0.815-0.984-0.816-2.2v-8.086c0.001-1.215,0.366-2.2,0.816-2.2h63.915
	c0.451,0,0.816,0.986,0.816,2.203v8.08C581.923,238.742,581.558,239.728,581.107,239.728z"/>
<path fill="#F3F2F1" d="M235.265,227.243h-15.217c-0.108,0-0.195-0.246-0.195-0.55v-2.021c0-0.304,0.087-0.55,0.195-0.55h15.217
	c0.108,0,0.195,0.247,0.195,0.551v2.02C235.46,226.996,235.373,227.243,235.265,227.243z"/>
<path fill="#F3F2F1" d="M235.265,233.486h-15.217c-0.108,0-0.195-0.246-0.195-0.55v-2.021c0-0.304,0.087-0.55,0.195-0.55h15.217
	c0.108,0,0.195,0.247,0.195,0.551v2.02C235.46,233.24,235.373,233.486,235.265,233.486z"/>
<path fill="#F3F2F1" d="M235.264,239.728h-15.217c-0.108,0-0.195-0.246-0.195-0.55v-2.021c0-0.304,0.087-0.55,0.195-0.55h15.217
	c0.108,0,0.195,0.247,0.195,0.551v2.02C235.459,239.481,235.372,239.728,235.264,239.728z"/>
<circle fill="#B4E0F5" cx="263.739" cy="233.357" r="8.406"/>
<circle fill="#B4E0F5" cx="263.739" cy="233.292" r="8.406"/>
<path fill="#3A312E" d="M257.184,231.029c-0.076,2.214-0.291,4.421-0.643,6.608c1.501,2.551,4.238,4.12,7.198,4.126
	c3.293,0,6.118-1.913,7.491-4.673c-0.399-2.188-0.701-4.393-0.905-6.608C270.238,229.481,257.35,230.224,257.184,231.029z"/>
<ellipse transform="matrix(-1 -0.0082 0.0082 -1 525.5817 464.4856)" fill="#3A312E" cx="263.743" cy="231.165" rx="6.596" ry="7.326"/>
<ellipse transform="matrix(-1 -0.0082 0.0082 -1 524.4364 464.6016)" fill="#BF8F68" cx="263.171" cy="231.225" rx="4.376" ry="5.303"/>
<radialGradient id="SVGID_12_" cx="241.5194" cy="845.9245" r="1" gradientTransform="matrix(-2.1212 0.1424 0.2698 4.0182 545.7762 -3200.9971)" gradientUnits="userSpaceOnUse">
	<stop  offset="0" style="stop-color:#9B643D"/>
	<stop  offset="0.882" style="stop-color:#BA8A63;stop-opacity:0.118"/>
	<stop  offset="1" style="stop-color:#BF8F68;stop-opacity:0.01"/>
</radialGradient>
<path fill="url(#SVGID_12_)" d="M262.991,228.539l-0.119,1.757c-0.072,0.707-0.399,1.364-0.921,1.848
	c-0.199,0.191-0.299,0.656-0.065,0.937c0.125,0.156,0.687,0.496,0.684,0.912l-0.066,1.623h-3.309l0.219-7.214L262.991,228.539z"/>
<path fill="#3A312E" d="M258.87,227.027c0,0,0.937,0.481,2.107-0.178c0.999-0.562,1.798,0.365,2.263,1.061
	c0.999,1.492,2.691,2.819,4.367,2.613c1.199-0.147,1.539-4.058-1.973-5.353C261.961,223.816,258.87,227.027,258.87,227.027z"/>
<path fill="#8B8CC7" d="M258.433,239.834c1.448,1.186,3.277,1.929,5.296,1.929c1.961,0,3.743-0.699,5.172-1.826
	c-1.272-0.595-2.591-1.086-3.942-1.47c0.094,0.24-4.853,1.014-4.953,1.014C259.441,239.481,258.913,239.615,258.433,239.834
	L258.433,239.834z"/>
<path fill="#BF8F68" d="M266.768,239.048c-1.596-0.425-1.733-1.53-1.742-1.801v-3.206h-2.928v4.064
	c-0.001,0.487-0.338,0.909-0.812,1.018l-1.742,0.387c0.013,0.009,3.424,1.118,7.929-0.181
	C267.255,239.245,266.927,239.104,266.768,239.048z"/>
<ellipse transform="matrix(-0.9997 -0.0232 0.0232 -0.9997 513.1663 474.3517)" fill="#F7C6C8" cx="259.334" cy="234.2" rx="0.837" ry="0.871"/>
<ellipse transform="matrix(-0.9997 -0.0232 0.0232 -0.9997 523.9291 469.1097)" fill="#3A312E" cx="264.685" cy="231.516" rx="0.409" ry="0.687"/>
<path fill="#9B643D" d="M262.366,234.314c0.303,0.031,1.408-0.2,1.633-0.325l0.1-0.053c0.05-0.031,0.156,0.072,0.156,0.087
	c0.031,0.606-0.543,0.774-0.893,0.924c-0.39,0.006-0.958,0.034-1.186-0.462c-0.015-0.031-0.016-0.066-0.005-0.098
	c0.012-0.032,0.036-0.057,0.067-0.071C262.26,234.307,262.366,234.314,262.366,234.314z"/>
<path fill="#BF8F68" d="M265.924,233.108l1.723,0.012c0.687,0.006,1.249-0.543,1.252-1.23v-0.1c0.005-0.685-0.545-1.245-1.23-1.252
	l-1.723-0.016L265.924,233.108z"/>
<ellipse transform="matrix(-0.9997 -0.0232 0.0232 -0.9997 529.9744 474.1716)" fill="#F7C6C8" cx="267.737" cy="234.012" rx="0.837" ry="0.871"/>
<ellipse fill="#3A312E" cx="260.84" cy="231.051" rx="0.409" ry="0.687"/>
<path fill="#F3F2F1" d="M574.465,562.658H219.573V245.721H578.96v312.442c0,2.479-2.01,4.489-4.489,4.489L574.465,562.658z"/>
<path fill="#FFFFFF" d="M563.399,311.518H282.075c-1.611,0-2.918-1.66-2.918-3.708v-45.651c0.002-2.046,1.308-3.703,2.918-3.703
	h281.324c0.774,0,1.516,0.391,2.064,1.086c0.547,0.695,0.854,1.639,0.854,2.622v45.651
	C566.315,309.861,565.009,311.518,563.399,311.518z"/>
<path fill="#E2E2F6" d="M391.263,289.844h-19.246v4.488h19.246V289.844z M357.484,289.844h-63.187v4.488h63.187V289.844z
	 M495.09,289.844h60.503v4.488H495.09V289.844z M480.538,289.844h-19.751v4.488h19.751V289.844z M405.789,289.844h40.49v4.488
	h-40.49V289.844z M357.484,298.775h-63.187v3.368h63.187V298.775z"/>
<path fill="#C2BADB" d="M547.653,511.4H328.291c-1.241,0-2.248-1.006-2.248-2.247v-52.694c0-1.241,1.007-2.247,2.248-2.247h219.362
	c1.241,0,2.247,1.006,2.247,2.247v52.7c-0.001,1.24-1.007,2.244-2.247,2.244V511.4z"/>
<path fill="#8B8CC4" d="M337.246,465.785h164.961v4.489H337.246V465.785z"/>
<path opacity="0.6" fill="#8B8CC4" enable-background="new    " d="M337.246,476.548h196.68v4.488h-196.68V476.548z M337.246,487.31
	h177.412v4.488H337.246V487.31z M379.449,498.216h-42.203v4.488h42.203V498.216z"/>
<path fill="#C2BADB" d="M547.653,402.276H383.235c-1.241,0-2.247-1.006-2.247-2.247v-31.276c0.003-1.239,1.008-2.241,2.247-2.241
	h164.418c1.24,0,2.246,1.004,2.247,2.244v31.276C549.899,401.272,548.893,402.276,547.653,402.276z"/>
<path opacity="0.6" fill="#8B8CC4" enable-background="new    " d="M535.024,376.553h-139.41v4.489h139.41V376.553z
	 M495.774,388.355H395.739v4.488h100.035V388.355z"/>
<path fill="#FFFFFF" d="M496.62,443.724H279.967c-1.241,0-2.247-1.006-2.247-2.247v-27.668c0.001-1.24,1.007-2.244,2.247-2.244
	H496.62c0.596,0,1.168,0.237,1.589,0.658c0.422,0.422,0.658,0.993,0.658,1.589v27.668C498.866,442.72,497.86,443.724,496.62,443.724
	z"/>
<path fill="#D9DADD" d="M480.383,421.975H291.987v4.488h188.396V421.975z M344.138,430.959h-52.151v4.488h52.151V430.959z"/>
<path fill="#FFFFFF" d="M310.59,355.94h-30.539c-1.24-0.001-2.244-1.007-2.244-2.247v-29.784c0-1.241,1.006-2.247,2.247-2.247
	h30.536c1.241,0,2.247,1.006,2.247,2.247v29.787C312.835,354.936,311.83,355.94,310.59,355.94z"/>
<path fill="#E1DFDD" d="M294.515,269.914h119.506v10.104H294.515V269.914z"/>
<circle fill="#F7B548" cx="295.326" cy="338.804" r="13.727"/>
<circle fill="#2B2B2A" cx="290.271" cy="335.162" r="2.101"/>
<circle fill="#2B2B2A" cx="300.633" cy="335.162" r="2.101"/>
<path fill="#E3646A" d="M286.057,341.323c1.12,4.061,4.9,7.145,9.245,7.145s8.265-3.081,9.245-7.145H286.057z"/>
<path fill="#F3F3F3" d="M304.004,343.006c0.281-0.562,0.421-1.121,0.562-1.68h-18.634c0.143,0.559,0.421,1.121,0.562,1.68H304.004z"
	/>
<path fill="#33312D" d="M287.617,340.203h0.843c3.241-0.019,5.865-2.642,5.883-5.884v-1.96h-12.606v1.96
	C281.755,337.559,284.377,340.182,287.617,340.203z M302.318,340.203h0.843c3.242-0.019,5.865-2.642,5.884-5.884v-1.96h-12.607v1.96
	C296.457,337.559,299.078,340.182,302.318,340.203z"/>
<path fill="#797673" d="M307.75,337.931l-5.438-5.569h-3.221l6.924,7.058C306.689,339.039,307.273,338.534,307.75,337.931z"/>
<path fill="#8B8CC7" d="M269.014,268.737c0,1.249-0.187,2.466-0.53,3.59c-1.561,5.056-6.243,8.74-11.83,8.74
	c-5.425-0.009-10.21-3.553-11.799-8.74c-0.353-1.164-0.531-2.373-0.53-3.59c0-6.818,5.527-12.345,12.345-12.345
	C263.487,256.393,269.014,261.919,269.014,268.737z"/>
<path fill="#DFBC97" d="M266.673,268.076c-0.166-1.235-0.292-2.474-0.377-3.717l-0.091-1.579c-0.06-0.601-0.196-1.191-0.406-1.757
	c-0.22-0.91-0.578-1.782-1.061-2.584c-0.842-1.41-2.081-2.54-3.561-3.249c-1.072-0.511-2.244-0.777-3.431-0.78h-2.693
	c-1.171,0-2.285,0.25-3.34,0.758c-0.949,0.431-1.81,1.052-2.581,1.87c-0.771,0.83-1.364,1.779-1.78,2.85
	c-0.446,1.111-0.668,2.279-0.668,3.496c0,0.247,0.022,0.462,0.038,0.69l-0.016,0.287c-0.09,1.28-0.218,2.516-0.38,3.717
	c-0.113,0.799-0.75,1.651-1.851,2.547c0.09,0.584,0.218,1.155,0.383,1.704c1.561,5.056,6.243,8.74,11.799,8.74
	c5.587,0,10.269-3.683,11.83-8.74c0.143-0.475,0.243-0.968,0.331-1.47C267.529,269.873,266.798,268.943,266.673,268.076z"/>
<path fill="#605D5A" d="M256.654,281.066c2.578,0,4.941-0.811,6.916-2.154c-0.628-0.391-1.315-0.68-2.035-0.855
	c-0.315-0.069-0.633-0.127-0.952-0.175c-0.025,0-0.043-0.009-0.065-0.012l-0.006,0.003c-1.046-0.156-2.316-0.262-3.84-0.312
	c-2.053,0.059-3.689,0.237-4.906,0.531l-0.032,0.016c-0.739,0.119-1.429,0.387-2.097,0.727
	C251.631,280.227,254.038,281.066,256.654,281.066z"/>
<path fill="#F9DDBF" d="M250.287,266.253h-0.465c-0.429-0.004-0.84,0.169-1.137,0.478c-0.302,0.301-0.47,0.712-0.465,1.139
	c0,0.45,0.159,0.833,0.481,1.152c0.309,0.312,0.687,0.465,1.136,0.465h0.45V266.253z"/>
<radialGradient id="SVGID_13_" cx="164.4265" cy="748.1318" r="1" gradientTransform="matrix(3.7148 0 0 -4.9033 -354.4662 3939.9988)" gradientUnits="userSpaceOnUse">
	<stop  offset="0" style="stop-color:#9A6541;stop-opacity:0.847"/>
	<stop  offset="1" style="stop-color:#F9DDBF"/>
</radialGradient>
<path fill="url(#SVGID_13_)" d="M256.529,278.695c-1.589,0.044-2.725-0.237-3.405-0.846c1.13-0.29,1.373-1.864,1.445-4.164
	l-0.156-3.315l4.298-0.047l-0.446,3.162c-0.119,2.241-0.05,4.074,1.205,4.364C259.024,278.355,258.043,278.636,256.529,278.695z"/>
<path fill="#F9DDBF" d="M256.435,258.349c1.748,0,3.237,0.571,4.473,1.717c1.249,1.155,1.873,2.544,1.873,4.161v4.095
	c0,1.62-0.624,2.996-1.873,4.142c-1.236,1.155-2.725,1.735-4.473,1.735h-0.025c-1.748,0-3.246-0.577-4.494-1.735
	c-1.236-1.142-1.851-2.525-1.851-4.142v-4.092c0-1.617,0.615-3.006,1.851-4.164c1.248-1.142,2.746-1.714,4.494-1.714h0.025V258.349z
	"/>
<radialGradient id="SVGID_14_" cx="154.8179" cy="748.0374" r="1" gradientTransform="matrix(2.7002 0 0 -4.893 -161.9846 3928.4749)" gradientUnits="userSpaceOnUse">
	<stop  offset="0" style="stop-color:#9A6541;stop-opacity:0.847"/>
	<stop  offset="1" style="stop-color:#F9DDBF;stop-opacity:0.01"/>
</radialGradient>
<path fill="url(#SVGID_14_)" d="M256.124,271.326h-4.252v-7.704h4.252V271.326z"/>
<path fill="#33312D" d="M253.745,265.672c-0.119-0.178-0.25-0.268-0.4-0.268c-0.162,0-0.297,0.097-0.4,0.29
	c-0.109,0.204-0.156,0.437-0.134,0.668c-0.007,0.228,0.055,0.453,0.178,0.646c0.103,0.178,0.231,0.265,0.378,0.265
	c0.15,0,0.284-0.087,0.399-0.265c0.107-0.194,0.157-0.418,0.157-0.668C253.913,266.107,253.852,265.879,253.745,265.672z
	 M259.158,267.277c0.162,0,0.296-0.091,0.399-0.268c0.112-0.206,0.172-0.434,0.178-0.668c0-0.253-0.05-0.475-0.156-0.668
	c-0.118-0.178-0.253-0.268-0.399-0.268c-0.15,0-0.285,0.091-0.403,0.268c-0.111,0.206-0.172,0.434-0.178,0.668
	c-0.005,0.232,0.049,0.462,0.156,0.668C258.877,267.186,259.008,267.277,259.158,267.277z"/>
<path fill="#F9DDBF" d="M256.123,269.434c0-0.044-0.112-0.15-0.334-0.312c-0.194-0.136-0.367-0.302-0.512-0.49
	c-0.154-0.181-0.241-0.409-0.246-0.646c0.012-0.231,0.117-0.447,0.29-0.599c0.353-0.324,0.608-0.741,0.737-1.202l0.065-0.581
	c0.269,0.687,0.35,1.53,0.244,2.538C256.307,268.647,256.226,269.078,256.123,269.434z"/>
<path fill="#DFBC97" d="M262.584,257.891c1.72,4.067,2.569,6.695,2.538,6.932c-0.652,0.341-1.378,0.517-2.113,0.512
	c-1.218,0-2.266-0.406-3.14-1.223c-0.854-0.783-1.366-1.871-1.427-3.028h-3.964c-0.056,1.186-0.524,2.197-1.398,3.028
	c-0.874,0.818-1.923,1.223-3.14,1.223c-0.815,0-1.567-0.19-2.247-0.577c-0.016-0.134,0.452-1.239,1.401-3.318l1.423-3.549H262.584
	L262.584,257.891z"/>
<radialGradient id="SVGID_15_" cx="205.2391" cy="812.5349" r="1" gradientTransform="matrix(-6.234 0 0 11.2619 1539.5734 -8895.5791)" gradientUnits="userSpaceOnUse">
	<stop  offset="0" style="stop-color:#5C2C07;stop-opacity:0.847"/>
	<stop  offset="1" style="stop-color:#BE906B;stop-opacity:0.01"/>
</radialGradient>
<path fill="url(#SVGID_15_)" d="M256.498,260.441h-3.34v-6.034h3.34V260.441z"/>
<path fill="#BF8F68" d="M256.466,260.441c0.025-0.257,0.144-0.495,0.334-0.668c0.174-0.184,0.416-0.289,0.669-0.289
	c0.252,0,0.494,0.104,0.668,0.289c0.188,0.173,0.3,0.413,0.312,0.668v0.646h-1.983V260.441z"/>
<path fill="#BF8F68" d="M254.834,259.773c-0.191,0.173-0.31,0.412-0.334,0.668v0.646h1.982v-0.646
	c-0.022-0.272-0.125-0.493-0.312-0.668c-0.174-0.184-0.415-0.288-0.668-0.288S255.007,259.589,254.834,259.773z M255.644,271.061
	c-0.076,0.005-0.155,0.011-0.239,0.018l-0.065,0.006c-0.082,0.007-0.154,0.055-0.192,0.126c-0.039,0.071-0.04,0.158-0.002,0.23
	c0.343,0.628,1.102,0.802,1.773,0.684c0.348-0.091,0.662-0.282,0.902-0.549c0.225-0.266,0.332-0.612,0.297-0.958
	c-0.009-0.083-0.059-0.156-0.134-0.193c-0.074-0.038-0.162-0.035-0.235,0.006l-0.046,0.025c-0.487,0.29-0.715,0.4-1.068,0.462
	C256.349,271.01,256.045,271.032,255.644,271.061z"/>
<path fill="#F9DDBF" d="M262.647,266.29h0.465c0.437,0,0.818,0.159,1.136,0.478c0.312,0.322,0.465,0.699,0.465,1.139
	c0.006,0.434-0.168,0.851-0.481,1.152c-0.309,0.312-0.686,0.465-1.136,0.465h-0.449V266.29z"/>
<path fill="#8B8CC7" d="M269.014,333.735c0,1.249-0.187,2.466-0.53,3.59c-1.561,5.056-6.243,8.739-11.83,8.739
	c-5.425-0.008-10.21-3.553-11.799-8.739c-0.353-1.164-0.531-2.374-0.53-3.59c0-6.817,5.527-12.344,12.345-12.344
	C263.487,321.391,269.014,326.918,269.014,333.735z"/>
<path fill="#DFBC97" d="M266.673,333.077c-0.166-1.235-0.292-2.475-0.377-3.718l-0.091-1.579c-0.059-0.602-0.196-1.193-0.406-1.761
	c-0.22-0.909-0.578-1.779-1.061-2.581c-0.842-1.409-2.081-2.54-3.561-3.249c-1.072-0.511-2.244-0.777-3.431-0.78h-2.693
	c-1.171,0-2.285,0.25-3.34,0.758c-0.949,0.428-1.81,1.052-2.581,1.87c-0.771,0.83-1.364,1.779-1.78,2.849
	c-0.446,1.112-0.668,2.279-0.668,3.496c0,0.247,0.022,0.462,0.038,0.69l-0.016,0.287c-0.09,1.28-0.218,2.516-0.38,3.718
	c-0.113,0.799-0.75,1.651-1.851,2.547c0.09,0.583,0.218,1.155,0.383,1.704c1.561,5.057,6.243,8.74,11.799,8.74
	c5.587,0,10.269-3.683,11.83-8.74c0.143-0.474,0.243-0.968,0.331-1.47C267.529,334.875,266.798,333.944,266.673,333.077z"/>
<path fill="#605D5A" d="M256.654,346.064c2.578,0,4.941-0.811,6.916-2.153c-0.628-0.392-1.315-0.68-2.035-0.855
	c-0.315-0.069-0.633-0.127-0.952-0.175c-0.025,0-0.043-0.013-0.065-0.013l-0.006,0.003c-1.046-0.156-2.316-0.262-3.84-0.312
	c-2.053,0.06-3.689,0.237-4.906,0.531l-0.032,0.015c-0.739,0.119-1.429,0.388-2.097,0.728
	C251.631,345.225,254.038,346.064,256.654,346.064z"/>
<path fill="#F9DDBF" d="M250.287,331.254h-0.465c-0.429-0.004-0.84,0.169-1.137,0.477c-0.302,0.302-0.47,0.713-0.465,1.14
	c0,0.449,0.159,0.833,0.481,1.152c0.309,0.312,0.687,0.465,1.136,0.465h0.45V331.254z"/>
<radialGradient id="SVGID_16_" cx="164.4265" cy="748.1318" r="1" gradientTransform="matrix(3.7148 0 0 -4.9033 -354.4662 4004.9844)" gradientUnits="userSpaceOnUse">
	<stop  offset="0" style="stop-color:#9A6541;stop-opacity:0.847"/>
	<stop  offset="1" style="stop-color:#F9DDBF"/>
</radialGradient>
<path fill="url(#SVGID_16_)" d="M256.529,343.696c-1.589,0.044-2.725-0.237-3.405-0.846c1.13-0.29,1.373-1.863,1.445-4.164
	l-0.156-3.315l4.298-0.047l-0.446,3.162c-0.119,2.242-0.05,4.074,1.205,4.364C259.024,343.356,258.043,343.637,256.529,343.696z"/>
<path fill="#F9DDBF" d="M256.435,323.348c1.748,0,3.237,0.571,4.473,1.716c1.249,1.155,1.873,2.544,1.873,4.161v4.095
	c0,1.617-0.624,2.997-1.873,4.142c-1.236,1.155-2.725,1.736-4.473,1.736h-0.025c-1.748,0-3.246-0.578-4.494-1.736
	c-1.236-1.142-1.851-2.525-1.851-4.142v-4.095c0-1.617,0.615-3.006,1.851-4.164c1.248-1.142,2.746-1.713,4.494-1.713H256.435
	L256.435,323.348z"/>
<radialGradient id="SVGID_17_" cx="154.8179" cy="748.0374" r="1" gradientTransform="matrix(2.7002 0 0 -4.893 -161.9846 3993.4844)" gradientUnits="userSpaceOnUse">
	<stop  offset="0" style="stop-color:#9A6541;stop-opacity:0.847"/>
	<stop  offset="1" style="stop-color:#F9DDBF;stop-opacity:0.01"/>
</radialGradient>
<path fill="url(#SVGID_17_)" d="M256.124,336.327h-4.252v-7.704h4.252V336.327z"/>
<path fill="#33312D" d="M259.158,332.278c0.162,0,0.296-0.091,0.399-0.269c0.112-0.205,0.172-0.434,0.178-0.668
	c0-0.253-0.05-0.474-0.156-0.668c-0.118-0.178-0.253-0.268-0.399-0.268c-0.15,0-0.285,0.09-0.403,0.268
	c-0.111,0.206-0.172,0.435-0.178,0.668c-0.005,0.233,0.049,0.462,0.156,0.668C258.877,332.187,259.008,332.278,259.158,332.278z
	 M253.745,330.673c-0.119-0.178-0.25-0.268-0.4-0.268c-0.162,0-0.297,0.097-0.4,0.29c-0.109,0.205-0.156,0.437-0.134,0.668
	c-0.007,0.229,0.055,0.454,0.178,0.646c0.103,0.178,0.231,0.266,0.378,0.266c0.15,0,0.284-0.088,0.399-0.266
	c0.107-0.193,0.157-0.418,0.157-0.668C253.913,331.108,253.852,330.88,253.745,330.673z"/>
<path fill="#F9DDBF" d="M256.123,334.435c0-0.044-0.112-0.15-0.334-0.312c-0.194-0.137-0.367-0.302-0.512-0.49
	c-0.154-0.181-0.241-0.409-0.246-0.647c0.012-0.23,0.117-0.446,0.29-0.599c0.353-0.324,0.608-0.74,0.737-1.202l0.065-0.58
	c0.269,0.686,0.35,1.529,0.244,2.538C256.307,333.648,256.226,334.079,256.123,334.435z"/>
<path fill="#DFBC97" d="M262.584,322.892c1.72,4.067,2.569,6.695,2.538,6.932c-0.652,0.341-1.378,0.517-2.113,0.512
	c-1.218,0-2.266-0.405-3.14-1.223c-0.854-0.784-1.366-1.871-1.427-3.028h-3.964c-0.056,1.186-0.524,2.197-1.398,3.028
	c-0.874,0.818-1.923,1.223-3.14,1.223c-0.815,0-1.567-0.19-2.247-0.577c-0.016-0.134,0.452-1.239,1.401-3.318l1.423-3.549H262.584
	L262.584,322.892z"/>
<radialGradient id="SVGID_18_" cx="205.2391" cy="812.5349" r="1" gradientTransform="matrix(-6.234 0 0 11.2619 1539.5734 -8830.6006)" gradientUnits="userSpaceOnUse">
	<stop  offset="0" style="stop-color:#5C2C07;stop-opacity:0.847"/>
	<stop  offset="1" style="stop-color:#BE906B;stop-opacity:0.01"/>
</radialGradient>
<path fill="url(#SVGID_18_)" d="M256.498,325.443h-3.34v-6.034h3.34V325.443z"/>
<path fill="#BF8F68" d="M256.466,325.442c0.025-0.256,0.144-0.494,0.334-0.668c0.174-0.184,0.416-0.288,0.669-0.288
	c0.252,0,0.494,0.104,0.668,0.288c0.188,0.173,0.3,0.413,0.312,0.668v0.646h-1.983V325.442z"/>
<path fill="#BF8F68" d="M254.834,324.774c-0.191,0.174-0.31,0.412-0.334,0.668v0.646h1.982v-0.646
	c-0.022-0.271-0.125-0.493-0.312-0.668c-0.174-0.184-0.415-0.288-0.668-0.288S255.007,324.59,254.834,324.774z M255.644,336.059
	c-0.076,0.005-0.155,0.011-0.239,0.017l-0.065,0.007c-0.082,0.007-0.154,0.054-0.192,0.126c-0.039,0.071-0.04,0.158-0.002,0.23
	c0.343,0.627,1.102,0.802,1.773,0.683c0.348-0.091,0.662-0.282,0.902-0.549c0.225-0.266,0.332-0.612,0.297-0.959
	c-0.009-0.082-0.059-0.155-0.134-0.193c-0.074-0.038-0.162-0.036-0.235,0.006l-0.046,0.025c-0.487,0.29-0.715,0.4-1.068,0.462
	C256.349,336.009,256.045,336.03,255.644,336.059z"/>
<path fill="#F9DDBF" d="M262.647,331.288h0.465c0.437,0,0.818,0.159,1.136,0.478c0.312,0.321,0.465,0.699,0.465,1.139
	c0.006,0.434-0.168,0.851-0.481,1.152c-0.309,0.312-0.686,0.465-1.136,0.465h-0.449V331.288L262.647,331.288z"/>
<path fill="#8B8CC7" d="M269.014,424.128c0,1.249-0.187,2.466-0.53,3.59c-1.561,5.056-6.243,8.739-11.83,8.739
	c-5.425-0.008-10.21-3.553-11.799-8.739c-0.353-1.164-0.531-2.374-0.53-3.59c0-6.818,5.527-12.344,12.345-12.344
	C263.487,411.784,269.014,417.31,269.014,424.128z"/>
<path fill="#DFBC97" d="M266.673,423.467c-0.166-1.235-0.292-2.475-0.377-3.718l-0.091-1.579c-0.059-0.602-0.196-1.194-0.406-1.761
	c-0.22-0.909-0.578-1.78-1.061-2.581c-0.842-1.41-2.081-2.54-3.561-3.249c-1.072-0.511-2.244-0.778-3.431-0.781h-2.693
	c-1.171,0-2.285,0.25-3.34,0.759c-0.949,0.427-1.81,1.052-2.581,1.87c-0.771,0.83-1.364,1.779-1.78,2.849
	c-0.446,1.111-0.668,2.279-0.668,3.496c0,0.247,0.022,0.462,0.038,0.69l-0.016,0.287c-0.09,1.28-0.218,2.516-0.38,3.718
	c-0.113,0.799-0.75,1.651-1.851,2.547c0.09,0.583,0.218,1.154,0.383,1.704c1.561,5.056,6.243,8.739,11.799,8.739
	c5.587,0,10.269-3.683,11.83-8.739c0.143-0.475,0.243-0.968,0.331-1.47C267.529,425.264,266.798,424.334,266.673,423.467z"/>
<path fill="#605D5A" d="M256.654,436.457c2.578,0,4.941-0.811,6.916-2.153c-0.628-0.392-1.315-0.68-2.035-0.855
	c-0.315-0.069-0.633-0.127-0.952-0.175c-0.025,0-0.043-0.01-0.065-0.013l-0.006,0.003c-1.046-0.156-2.316-0.262-3.84-0.312
	c-2.053,0.06-3.689,0.237-4.906,0.531l-0.032,0.015c-0.739,0.119-1.429,0.388-2.097,0.728
	C251.631,435.618,254.038,436.457,256.654,436.457z"/>
<path fill="#F9DDBF" d="M250.287,421.644h-0.465c-0.429-0.004-0.84,0.168-1.137,0.477c-0.302,0.302-0.47,0.713-0.465,1.14
	c0,0.449,0.159,0.833,0.481,1.152c0.309,0.312,0.687,0.465,1.136,0.465h0.45V421.644z"/>
<radialGradient id="SVGID_19_" cx="164.4265" cy="748.1318" r="1" gradientTransform="matrix(3.7148 0 0 -4.9033 -354.4662 4095.3774)" gradientUnits="userSpaceOnUse">
	<stop  offset="0" style="stop-color:#9A6541;stop-opacity:0.847"/>
	<stop  offset="1" style="stop-color:#F9DDBF"/>
</radialGradient>
<path fill="url(#SVGID_19_)" d="M256.529,434.086c-1.589,0.044-2.725-0.237-3.405-0.846c1.13-0.29,1.373-1.863,1.445-4.164
	l-0.156-3.315l4.298-0.047l-0.446,3.162c-0.119,2.242-0.05,4.074,1.205,4.364C259.024,433.746,258.043,434.027,256.529,434.086z"/>
<path fill="#F9DDBF" d="M256.435,413.741c1.748,0,3.237,0.571,4.473,1.716c1.249,1.155,1.873,2.544,1.873,4.161v4.095
	c0,1.62-0.624,2.997-1.873,4.142c-1.236,1.155-2.725,1.736-4.473,1.736h-0.025c-1.748,0-3.246-0.578-4.494-1.736
	c-1.236-1.142-1.851-2.525-1.851-4.142v-4.095c0-1.617,0.615-3.006,1.851-4.164c1.248-1.142,2.746-1.713,4.494-1.713H256.435
	L256.435,413.741z"/>
<radialGradient id="SVGID_20_" cx="154.8179" cy="748.0374" r="1" gradientTransform="matrix(2.7002 0 0 -4.893 -161.9846 4083.8794)" gradientUnits="userSpaceOnUse">
	<stop  offset="0" style="stop-color:#9A6541;stop-opacity:0.847"/>
	<stop  offset="1" style="stop-color:#F9DDBF;stop-opacity:0.01"/>
</radialGradient>
<path fill="url(#SVGID_20_)" d="M256.124,426.72h-4.252v-7.704h4.252V426.72z"/>
<path fill="#33312D" d="M259.158,422.668c0.162,0,0.296-0.091,0.399-0.269c0.112-0.205,0.172-0.434,0.178-0.668
	c0-0.253-0.05-0.474-0.156-0.668c-0.118-0.178-0.253-0.268-0.399-0.268c-0.15,0-0.285,0.09-0.403,0.268
	c-0.111,0.206-0.172,0.435-0.178,0.668c-0.005,0.233,0.049,0.462,0.156,0.668C258.877,422.577,259.008,422.668,259.158,422.668z
	 M253.745,421.063c-0.119-0.178-0.25-0.268-0.4-0.268c-0.162,0-0.297,0.097-0.4,0.29c-0.109,0.205-0.156,0.437-0.134,0.668
	c-0.007,0.229,0.055,0.454,0.178,0.646c0.103,0.178,0.231,0.266,0.378,0.266c0.15,0,0.284-0.088,0.399-0.266
	c0.107-0.193,0.157-0.418,0.157-0.668C253.913,421.498,253.852,421.27,253.745,421.063z"/>
<path fill="#F9DDBF" d="M256.123,424.825c0-0.044-0.112-0.15-0.334-0.312c-0.194-0.137-0.367-0.302-0.512-0.49
	c-0.153-0.18-0.24-0.407-0.246-0.644c0.011-0.231,0.116-0.448,0.29-0.602c0.353-0.324,0.608-0.74,0.737-1.202l0.065-0.58
	c0.269,0.686,0.35,1.529,0.244,2.537C256.321,423.969,256.24,424.401,256.123,424.825z"/>
<path fill="#DFBC97" d="M262.584,413.285c1.72,4.067,2.569,6.695,2.538,6.932c-0.652,0.341-1.378,0.517-2.113,0.512
	c-1.218,0-2.266-0.406-3.14-1.223c-0.854-0.784-1.366-1.871-1.427-3.028h-3.964c-0.056,1.186-0.524,2.197-1.398,3.028
	c-0.874,0.817-1.923,1.223-3.14,1.223c-0.815,0-1.567-0.19-2.247-0.577c-0.016-0.134,0.452-1.239,1.401-3.318l1.423-3.549H262.584z"
	/>
<radialGradient id="SVGID_21_" cx="205.2391" cy="812.5349" r="1" gradientTransform="matrix(-6.234 0 0 11.2619 1539.5734 -8740.2051)" gradientUnits="userSpaceOnUse">
	<stop  offset="0" style="stop-color:#5C2C07;stop-opacity:0.847"/>
	<stop  offset="1" style="stop-color:#BE906B;stop-opacity:0.01"/>
</radialGradient>
<path fill="url(#SVGID_21_)" d="M256.498,415.833h-3.34v-6.035h3.34V415.833z"/>
<path fill="#BF8F68" d="M256.466,415.832c0.025-0.256,0.144-0.494,0.334-0.668c0.174-0.184,0.416-0.288,0.669-0.288
	c0.252,0,0.494,0.104,0.668,0.288c0.188,0.173,0.3,0.413,0.312,0.668v0.646h-1.983V415.832z"/>
<path fill="#BF8F68" d="M254.834,415.164c-0.191,0.173-0.31,0.412-0.334,0.668v0.646h1.982v-0.646
	c-0.012-0.255-0.124-0.495-0.312-0.668c-0.174-0.184-0.415-0.289-0.668-0.289S255.007,414.98,254.834,415.164z M255.644,426.452
	c-0.076,0.005-0.155,0.011-0.239,0.017l-0.065,0.007c-0.082,0.007-0.154,0.054-0.192,0.126c-0.039,0.071-0.04,0.158-0.002,0.23
	c0.343,0.627,1.102,0.802,1.773,0.683c0.348-0.091,0.662-0.282,0.902-0.549c0.225-0.266,0.332-0.612,0.297-0.959
	c-0.009-0.082-0.059-0.155-0.134-0.193c-0.074-0.038-0.162-0.036-0.235,0.006l-0.046,0.025c-0.487,0.29-0.715,0.4-1.068,0.462
	C256.349,426.402,256.045,426.423,255.644,426.452z"/>
<path fill="#F9DDBF" d="M262.647,421.681h0.465c0.437,0,0.818,0.159,1.136,0.478c0.312,0.321,0.465,0.699,0.465,1.139
	c0.006,0.434-0.168,0.851-0.481,1.152c-0.309,0.312-0.686,0.465-1.136,0.465h-0.449V421.681z"/>
<path fill="#FFFFFF" d="M547.653,546.303H279.942c-1.241,0-2.248-1.007-2.248-2.248v-13.468c0.002-1.24,1.008-2.244,2.248-2.244
	h267.711c1.241,0,2.247,1.006,2.247,2.247v13.468C549.899,545.298,548.893,546.303,547.653,546.303z"/>
<linearGradient id="SVGID_22_" gradientUnits="userSpaceOnUse" x1="823.3254" y1="285.8943" x2="744.9714" y2="250.6513" gradientTransform="matrix(1 0 0 -1 0 794)">
	<stop  offset="0" style="stop-color:#C8C6C4"/>
	<stop  offset="1" style="stop-color:#E1DFDD"/>
</linearGradient>
<path fill="url(#SVGID_22_)" d="M807.471,477.671l-76.366,74.237l15.038,19.056c0,0,26.032,2.965,37.787-8.787l43.186-44.797
	c0,0-8.561-50.484-19.642-39.709H807.471z"/>
<path fill="#4D95D6" d="M771.982,451.309c9.991,19.861,15.684,23.4,30.245,27.28c14.561,3.88,28.248-15.382,28.248-15.382
	l5.855,4.994c0,0-13.212,50.878-47.294,46.049c-34.54-4.891-59.117-28.22-56.573-54.236c2.172-22.233,29.402-28.803,39.516-8.708
	L771.982,451.309z"/>
<linearGradient id="SVGID_23_" gradientUnits="userSpaceOnUse" x1="829.5407" y1="244.0609" x2="873.8347" y2="294.1479" gradientTransform="matrix(1 0 0 -1 0 794)">
	<stop  offset="0" style="stop-color:#C8C6C4"/>
	<stop  offset="1" style="stop-color:#E1DFDD"/>
</linearGradient>
<path fill="url(#SVGID_23_)" d="M894.586,567.902l-9.183-4.751c-1.585-0.817-2.918-2.3-3.933-4.566l-35.411-74.431
	c-6.639-13.958-25.03-17.261-36.113-6.489l19.642,39.709l40.895,48.571c0.101,2.762,2.364,4.953,5.129,4.963l18.057,0.075
	c1.676,0.009,2.322-2.176,0.914-3.081H894.586z"/>
<radialGradient id="SVGID_24_" cx="188.8553" cy="790.9318" r="1" gradientTransform="matrix(82.9918 0 0 -106.375 -14908.5996 84646.5313)" gradientUnits="userSpaceOnUse">
	<stop  offset="0" style="stop-color:#4D95D6"/>
	<stop  offset="0.746" style="stop-color:#54A2E9"/>
</radialGradient>
<path fill="url(#SVGID_24_)" d="M741.112,546.178h-50.996l-5.781-67.389c-3.159-27.961,13.703-54.246,36.345-54.246h9.994
	c22.645,0,42.522,17.754,44.401,39.657l3.633,42.318c1.879,21.903-14.954,39.657-37.596,39.657V546.178z"/>
<path fill="#E0BB95" d="M730.68,424.509c5.338,0.015,10.628,0.999,15.613,2.906c-0.821,5.188-6.47,9.058-14.04,9.058
	c-8.683,0-16.842-4.81-18.197-11.152c0.42-0.066,0.853-0.138,1.295-0.212c1.729-0.289,3.591-0.6,5.332-0.6H730.68z M824.332,463.201
	c-0.253,0.606,11.521,4.857,12.011,5l6.829-14.707c1.96-5.232,0.437-8.212-1.81-8.734L833,444.767
	c-0.49-0.144-1.093,0.231-1.342,0.836L824.332,463.201z"/>
<path fill="#605D5A" d="M833.003,468.501H796.54c-1.723,0-2.981-1.233-2.809-2.75l5.062-44.223c0.175-1.52,1.711-2.75,3.434-2.75
	h36.466c1.723,0,2.978,1.233,2.806,2.75l-5.06,44.223C836.265,467.271,834.726,468.501,833.003,468.501z"/>
<path fill="#E0BB95" d="M793.487,468.201c0,0,12.976-5.216,13.984-10.631c1.42-2.425,1.592-2.659,1.81-3.727
	c0.493-2.35-1.373-2.225-1.373-2.225s1.838-1.879,0.892-3.271c-0.945-1.393-13.849,6.742-13.849,6.742l0.671-5.868
	c0,0-7.99,8.287-7.99,13.986C787.632,464.986,793.487,468.201,793.487,468.201z"/>
<path fill="#4D95D6" d="M726.13,450.706c7.372,21.256,11.074,25.729,25.729,29.244c14.657,3.514,35.801-16.743,35.801-16.743
	l5.977,4.847c0,0-15.769,47.304-50.19,46.895c-31.519-0.375-58.818-29.787-56.927-55.856
	C688.137,436.81,718.757,429.45,726.13,450.706z"/>
<radialGradient id="SVGID_25_" cx="184.2395" cy="779.178" r="1" gradientTransform="matrix(14.691 0.6805 0.7504 -16.2003 -2552.0679 12915.5322)" gradientUnits="userSpaceOnUse">
	<stop  offset="0" style="stop-color:#9B643D"/>
	<stop  offset="0.273" style="stop-color:#B6865F"/>
	<stop  offset="0.566" style="stop-color:#CDA37C"/>
	<stop  offset="0.819" style="stop-color:#DBB58F"/>
	<stop  offset="1" style="stop-color:#E0BB95"/>
</radialGradient>
<path fill="url(#SVGID_25_)" d="M736.492,433.48l-11.143-0.515c-1.956-0.091-3.795-0.955-5.114-2.402
	c-1.319-1.447-2.009-3.358-1.918-5.314l0.961-20.763l25.32,1.174l-0.989,21.334C743.433,430.749,740.248,433.653,736.492,433.48z"/>
<path fill="#E1DFDD" d="M738.084,401.873l-22.985-1.336l0.771-13.234c0.246-4.219,3.865-7.439,8.084-7.194l15.344,0.889
	c3.768,0.165,7.156,2.346,8.865,5.708c1.709,3.362,1.475,7.384-0.612,10.526C745.463,400.373,741.846,402.147,738.084,401.873z"/>
<circle fill="#E0BB95" cx="720.043" cy="401.365" r="5.993"/>
<path fill="#E0BB95" d="M738.708,425.405c-11.118-0.647-19.608-10.184-18.962-21.303l0.671-11.599
	c0.127-2.18,1.114-4.22,2.745-5.672c1.631-1.451,3.772-2.196,5.951-2.069l27.156,1.58l-1.436,24.708
	c-0.234,4.042-2.065,7.826-5.089,10.518C746.72,424.26,742.75,425.64,738.708,425.405z"/>
<path fill="#E1DFDD" d="M749.071,388.305c-4.922-1.567-8.933-2.325-14.005-2.84c-7.925-0.799-14.508,0.084-14.508,0.084l0.228-2.363
	c0.518-5.356,4.145-10.113,10.631-8.758c9.954,2.079,7.975-0.974,12.31-0.955c4.117,0.015,4.745,4.132,6.462,4.285
	c4.157,0.372,3.739-5.122,9.875-3.23C765.274,376.135,767.128,394.058,749.071,388.305z"/>
<ellipse transform="matrix(-0.9983 -0.058 0.058 -0.9983 1445.668 840.8174)" fill="#594539" cx="735.036" cy="399.429" rx="1.477" ry="2.541"/>
<radialGradient id="SVGID_26_" cx="197.1359" cy="801.563" r="1" gradientTransform="matrix(-11.711 -0.5969 -1.335 26.1895 4117.4043 -20468.7539)" gradientUnits="userSpaceOnUse">
	<stop  offset="0" style="stop-color:#BF8F68"/>
	<stop  offset="1" style="stop-color:#BF8F68;stop-opacity:0.01"/>
</radialGradient>
<path fill="url(#SVGID_26_)" d="M747.353,406.718l-1.56,2.253l-4.01,2.819l-0.986-1.239c0.043-0.659,0.413-1.252,0.986-1.58
	l2.934-1.679c0.64-0.364,0.867-1.176,0.509-1.82l-2.21-3.964c-0.527-0.944-0.773-2.02-0.709-3.099v-1.055h0.709l1.118,4.154
	L747.353,406.718z"/>
<ellipse transform="matrix(-0.9983 -0.058 0.058 -0.9983 1471.4521 842.5337)" fill="#594539" cx="747.953" cy="399.913" rx="1.477" ry="2.541"/>
<path fill="#E1DFDD" d="M719.856,383.027c0,0,9.507-1.601,9.426,5.553c-0.053,4.248-3.224,6.221-5.946,6.633
	c-2.441,0.368-4.273,0.246-4.273,0.246L719.856,383.027z"/>
<path fill="#BF8F68" d="M735.244,411.187c1.358,1.196,2.235,1.702,3.252,2.045c1.031,0.344,2.092,0.559,3.853,0.571h0.053
	c0.179,0.001,0.345,0.094,0.439,0.247c0.094,0.152,0.103,0.342,0.023,0.503c-0.927,1.86-3.437,2.581-5.482,1.826
	c-1.033-0.37-1.91-1.079-2.488-2.011c-0.552-0.871-0.742-1.924-0.531-2.934c0.038-0.179,0.168-0.324,0.341-0.382
	c0.174-0.058,0.365-0.019,0.502,0.101L735.244,411.187z"/>
<path fill="#E1DFDD" d="M747.729,571.304h-25.76c-16.406,0-30.811-12.866-32.175-28.735l-1.616-18.834h55.468L747.729,571.304z"/>
<path fill="#E1DFDD" d="M871.488,568.214l-9.182-4.751c-1.586-0.817-2.919-2.3-3.933-4.566l-35.411-74.431
	c-6.639-13.958-25.03-17.261-36.114-6.489l-83.838,66.684l17.741,17.822c11.752,11.752,30.804,11.752,42.553,0l43.186-44.794
	l40.896,48.568c0.1,2.762,2.364,4.953,5.128,4.963l18.057,0.075c1.676,0.009,2.322-2.173,0.914-3.081H871.488z"/>
<path fill="#E0BB95" d="M836.459,447.42l4.317,0.743c0.94,0.162,1.833-0.468,1.995-1.408s-0.469-1.833-1.408-1.995l-4.317-0.743
	c-0.608-0.105-1.226,0.123-1.621,0.597c-0.394,0.474-0.506,1.122-0.293,1.701C835.345,446.894,835.851,447.315,836.459,447.42z
	 M835.179,452.165l4.317,0.743c0.608,0.105,1.225-0.123,1.62-0.597c0.395-0.474,0.507-1.122,0.293-1.701
	c-0.213-0.579-0.718-1-1.326-1.105l-4.317-0.743c-0.608-0.105-1.226,0.123-1.621,0.597c-0.394,0.474-0.506,1.122-0.293,1.701
	C834.065,451.639,834.571,452.06,835.179,452.165z"/>
<path fill="#E0BB95" d="M839.527,456.275l-4.317-0.743c-0.608-0.105-1.114-0.526-1.327-1.105c-0.213-0.578-0.101-1.227,0.294-1.701
	c0.394-0.474,1.012-0.701,1.62-0.596l4.317,0.742c0.608,0.105,1.114,0.526,1.327,1.105c0.213,0.579,0.101,1.228-0.294,1.702
	C840.753,456.153,840.135,456.38,839.527,456.275z"/>
<path fill="#E0BB95" d="M714.05,425.318c0,0,2.622-0.961,3.215-1.895c1.205-1.888,1.305-4.233,1.305-4.233l1.91,7.471
	L714.05,425.318z M836.515,459.075l2.232,0.384c0.607,0.105,1.225-0.123,1.62-0.597c0.394-0.474,0.506-1.122,0.293-1.701
	c-0.213-0.579-0.719-1-1.327-1.105l-2.235-0.384c-0.611-0.112-1.236,0.113-1.635,0.59c-0.399,0.476-0.511,1.13-0.294,1.712
	C835.387,458.557,835.901,458.977,836.515,459.075z"/>
<path fill="#B3AFAB" d="M674.16,528.358c0,0,0.721,33.548,6.305,41.401h9.323c5.584-7.856,6.305-41.401,6.305-41.401H674.16
	L674.16,528.358z"/>
<path fill="#B3AFAB" d="M696.258,532.881H673.96c-1.249,0-2.262-1.013-2.262-2.261c0-1.249,1.013-2.262,2.262-2.262h22.298
	c1.217,0.045,2.179,1.044,2.179,2.262C698.437,531.837,697.475,532.836,696.258,532.881z"/>
<path fill="#797673" d="M674.316,532.881c0.418,9.398,1.822,30.801,6.142,36.878h9.324c4.32-6.077,5.724-27.48,6.139-36.878H674.316
	z"/>
<linearGradient id="SVGID_27_" gradientUnits="userSpaceOnUse" x1="667.2658" y1="244.7076" x2="662.9648" y2="248.8596" gradientTransform="matrix(1 0 0 -1 0 794)">
	<stop  offset="0" style="stop-color:#C8C6C4"/>
	<stop  offset="1" style="stop-color:#E1DFDD"/>
</linearGradient>
<path fill="url(#SVGID_27_)" d="M665.795,551.515c-1.653-0.954-2.86-2.525-3.354-4.369c-0.494-1.843-0.235-3.807,0.719-5.46
	c1.653,0.954,2.859,2.526,3.353,4.369C667.007,547.898,666.749,549.862,665.795,551.515z"/>
<path fill="#C8C6C4" d="M665.796,551.547c-3.974,0-7.196-3.221-7.196-7.195c1.908,0,3.739,0.758,5.088,2.107
	C665.037,547.809,665.796,549.639,665.796,551.547z"/>
<path fill="#E47B93" d="M665.919,552.514l-0.034,0.281l-0.037-0.281c-5.129-4.011-12.395-0.094-10.925,6.352
	c1.121,4.922,4.526,10.89,8.771,10.89c0.939,0,1.607-0.009,2.188-0.019c0.581,0.01,1.252,0.019,2.191,0.019
	c4.245,0,7.65-5.968,8.771-10.89C678.314,552.42,671.048,548.503,665.919,552.514z"/>
<circle fill="#EE8F94" cx="671.788" cy="555.542" r="2.329"/>
<path fill="#EE8F94" d="M157.293,309.036h11.187v37.874h-11.187V309.036z"/>
<path fill="#BF8F68" d="M119.816,345.038c0.165,0.109,2.591,2.365,3.97,3.648c0.593,0.556,1.395,0.834,2.207,0.768l10.154-0.818
	l2.666-0.305v-3.871L119.816,345.038z"/>
<path fill="#E47B93" d="M163.932,353.54l-27.786-4.904v-5.112h27.786V353.54z"/>
<circle fill="#E47B93" cx="171.033" cy="308.855" r="13.74"/>
<ellipse fill="#C3C3E1" cx="182.423" cy="380.34" rx="30.536" ry="28.476"/>
<path fill="#C3C3E1" d="M153.638,370.823c-16.652,26.968,1.529,165.956,1.848,181.769c0.031,1.595-0.843,3.059-2.25,3.774
	l-8.593,3.804c-0.983,0.684-0.506,2.248,0.687,2.248h13.734c1.498,0,2.731-1.199,2.797-2.722l23.806-164.087
	c0,0-22.38-40.405-32.025-24.783L153.638,370.823z"/>
<path fill="#C3C3E1" d="M153.638,370.823c-16.652,26.968,1.529,165.956,1.848,181.769c0.031,1.595-0.843,3.059-2.25,3.774
	l-8.593,3.804c-0.983,0.684-0.506,2.248,0.687,2.248h13.734c1.498,0,2.731-1.199,2.797-2.722l21.89-150.881
	c0,0-7.772-7.75-15.326-17.57C163.467,384.797,158.03,377.449,153.638,370.823z"/>
<path fill="#E47B93" d="M211.207,370.823h-57.569l6.851-17.427c3.184-15.416-1.654-35.308-1.654-35.308l46.673,5.207
	c0,0-5.085,12.566-1.152,30.101L211.207,370.823z"/>
<path fill="#594539" d="M204.655,261.107c1.838,14.325,23.001,17.637-20.03,28.935c-52.169,0-24.849-8.615-26.687-22.94
	c-1.838-14.325,7.129-27.28,20.03-28.935C190.868,236.512,202.816,246.782,204.655,261.107z"/>
<ellipse transform="matrix(-0.1125 -0.9937 0.9937 -0.1125 -89.3454 472.8054)" fill="#E47B93" cx="166.477" cy="276.303" rx="3.109" ry="2.984"/>
<path fill="#BF8F68" d="M178.546,275.61h10.463v18.269h-10.463V275.61z"/>
<radialGradient id="SVGID_28_" cx="198.1076" cy="803.744" r="1" gradientTransform="matrix(-11.7174 0 0 20.4766 2504.0159 -16178.2461)" gradientUnits="userSpaceOnUse">
	<stop  offset="0" style="stop-color:#9B643D"/>
	<stop  offset="0.882" style="stop-color:#BA8A63;stop-opacity:0.118"/>
	<stop  offset="1" style="stop-color:#BF8F68;stop-opacity:0.01"/>
</radialGradient>
<path fill="url(#SVGID_28_)" d="M178.543,275.607h10.46v18.278h-10.46V275.607z"/>
<ellipse transform="matrix(-0.1273 -0.9919 0.9919 -0.1273 -60.2066 476.1348)" fill="#BF8F68" cx="179.365" cy="264.554" rx="18.928" ry="15.632"/>
<ellipse transform="matrix(-0.1125 -0.9937 0.9937 -0.1125 -56.8931 476.4702)" fill="#33312D" cx="184.34" cy="263.643" rx="2.447" ry="1.458"/>
<radialGradient id="SVGID_29_" cx="208.1072" cy="807.3036" r="1" gradientTransform="matrix(-7.4323 1.5297 2.7671 13.4443 -510.6266 -10902.1475)" gradientUnits="userSpaceOnUse">
	<stop  offset="0" style="stop-color:#9B643D"/>
	<stop  offset="0.882" style="stop-color:#BA8A63;stop-opacity:0.118"/>
	<stop  offset="1" style="stop-color:#BF8F68;stop-opacity:0.01"/>
</radialGradient>
<path fill="url(#SVGID_29_)" d="M177.123,254.535l0.428,6.268c0.131,3.218-1.258,5.609-2.36,6.986
	c-0.618,0.771-0.743,2.466,0.219,3.349c0.524,0.481,2.669,1.414,2.859,2.89l0.549,5.777l-11.705,1.592l-2.716-25.62L177.123,254.535
	L177.123,254.535z"/>
<path fill="#9B643D" d="M177.694,275.261c0.584,0.031,1.024-0.065,1.517-0.184c0.481-0.15,0.98-0.281,1.461-0.474
	c0.493-0.162,0.968-0.375,1.43-0.559c0.465-0.212,0.837-0.375,1.217-0.724l0.2-0.187c0.11-0.102,0.265-0.141,0.41-0.103
	c0.145,0.038,0.261,0.147,0.308,0.29c0.315,0.968-0.234,1.879-0.756,2.451c-0.536,0.578-1.207,1.013-1.954,1.264
	c-0.731,0.231-1.508,0.378-2.316,0.222c-0.784-0.122-1.683-0.496-2.107-1.289c-0.083-0.154-0.076-0.341,0.018-0.488
	s0.26-0.233,0.434-0.224L177.694,275.261z"/>
<path fill="#594539" d="M161.869,251.18c0,0,3.533,1.239,7.372-1.654c3.721-2.8,6.533,0.418,8.512,2.653
	c0,9.398,10.878,8.677,16.708,7.135c4.17-1.099,3.483-15.095-9.567-17.979C171.249,238.314,161.869,251.18,161.869,251.18z"/>
<path fill="#BF8F68" d="M189.714,269.274l6.093-0.78c2.435-0.312,4.158-2.544,3.842-4.979l-0.04-0.325
	c-0.313-2.435-2.54-4.157-4.976-3.845l-6.093,0.78L189.714,269.274z"/>
<path fill="#C3C3E1" d="M211.207,370.823c14.174,33.828,6.515,106.324-13.246,181.607c-0.453,1.716,0.449,3.502,2.06,4.198
	l8.24,3.102c1.351,0.818,0.78,2.928-0.796,2.928h-14.651c-1.587-0.013-2.881-1.278-2.928-2.865l-7.866-172.911
	C182.02,386.882,202.196,373.282,211.207,370.823z"/>
<ellipse transform="matrix(-0.1125 -0.9937 0.9937 -0.1125 -50.4478 497.1016)" fill="#E47B93" cx="196.776" cy="271.08" rx="3.109" ry="2.984"/>
<circle fill="#EE8F94" cx="182.519" cy="316.674" r="23.922"/>
<radialGradient id="SVGID_30_" cx="187.3283" cy="788.4376" r="1" gradientTransform="matrix(35.5579 0 0 -48.2203 -6451.6978 38364.3945)" gradientUnits="userSpaceOnUse">
	<stop  offset="0" style="stop-color:#E47B93"/>
	<stop  offset="1" style="stop-color:#C56B80;stop-opacity:0.32"/>
</radialGradient>
<path fill="url(#SVGID_30_)" d="M153.638,370.823h57.569l-6.851-17.427c-2.385-10.634-1.451-19.417-0.35-24.705
	c1.649-3.533,2.435-7.631,2.435-12.017c0-13.212-10.71-23.922-23.922-23.922c-13.212,0-23.922,10.71-23.922,23.922
	c0,3.025,0.584,5.906,1.611,8.571c1.133,7.186,2.266,18.541,0.281,28.151L153.638,370.823z"/>
<path fill="#E47B93" d="M166.988,341.392c0,0,39.354,23.45,52.738,4.42c6.842-9.726,2.487-43.486-23.238-51.926
	c-15.847,3.309-8.206,17.838-8.206,17.838s14.92,4.723,18.159,21.74c2.21,11.598-39.166,3.183-39.166,3.183L166.988,341.392z"/>
<path fill="#BF8F68" d="M166.988,341.392l-8.496-3.04l-1.508-0.437c-0.643,0.047-1.219,0.412-1.536,0.974l-1.071,1.888l-2.506-1.505
	l0.824-2.774c0.236-0.792,0.83-1.428,1.604-1.717l2.328-1.455l-2.647,0.575l-2.113,1.754l-1.948,0.065l3.852-3.661l3.377-0.534
	c0.499-0.079,1.01,0.012,1.451,0.259l8.674,4.863L166.988,341.392z"/>
<path fill="#C8C6C4" d="M156.747,341.233h-51.286c-0.722-0.002-1.356-0.48-1.554-1.174l-8.843-30.804
	c-0.141-0.488-0.045-1.015,0.261-1.422c0.306-0.406,0.785-0.645,1.293-0.645h51.289c0.724,0,1.358,0.481,1.557,1.174l8.84,30.808
	c0.14,0.488,0.043,1.014-0.263,1.42c-0.305,0.406-0.784,0.645-1.292,0.646L156.747,341.233z"/>
<path fill="#C8C6C4" d="M167.004,345.812h-60.563c-1.265,0-2.291-1.026-2.291-2.291c0-1.266,1.026-2.291,2.291-2.291h60.563
	c1.265,0,2.291,1.025,2.291,2.291C169.295,344.786,168.269,345.812,167.004,345.812z"/>
<path fill="#BF8F68" d="M178.543,290.112v-3.886l1.205,8.921l-11.324,0.219l7.226-1.614
	C177.344,293.358,178.543,291.85,178.543,290.112z M195.518,293.54c-6.509-1.742-6.515-6.705-6.515-6.705l-0.721,8.616
	L195.518,293.54z"/>
<path fill="#BF8F68" d="M169.435,295.134c0.044,0.031,0.087,0.044,0.131,0.062c0.462,0.2,0.935,0.373,1.417,0.518
	c1.966,0.64,4.376,1.105,7.076,1.333h0.013c1.998,0.172,4.129,0.219,6.367,0.109c2.113-0.088,4.217-0.319,6.299-0.693
	c1.167-0.218,2.279-0.465,3.318-0.746c1.302-0.338,2.575-0.779,3.808-1.317c-0.78-0.303-1.57-0.584-2.347-0.865
	c-0.574-0.206-1.155-0.403-1.729-0.593c-2.11-0.911-3.287-2.207-3.945-3.365l-0.833-0.128c-0.075,0-0.141-0.013-0.219-0.022
	c-0.375-0.044-0.743-0.087-1.124-0.119h-0.009c-2.586-0.222-5.189-0.154-7.76,0.203h-0.009c-0.293,0.031-0.584,0.078-0.874,0.131
	c-0.165,0.022-0.315,0.053-0.468,0.075v0.39c0,1.739-1.199,3.252-2.897,3.643L169.435,295.134L169.435,295.134z"/>
<ellipse transform="matrix(-0.1421 -0.9899 0.9899 -0.1421 -67.0003 472.5878)" fill="#33312D" cx="171.296" cy="265.328" rx="2.447" ry="1.458"/>
</svg>
