<?xml version="1.0" encoding="UTF-8"?>
<svg xmlns="http://www.w3.org/2000/svg" xmlns:xlink="http://www.w3.org/1999/xlink" viewBox="0 0 500 500" width="500px" height="500px">
<g id="surface9487448">
<path style=" stroke:none;fill-rule:evenodd;fill:rgb(100%,100%,100%);fill-opacity:1;" d="M 345.546875 39.84375 C 337.75 39.582031 329.589844 40.941406 321.40625 43.59375 C 305.042969 48.898438 287.890625 59.238281 270.292969 73.554688 C 263.394531 79.164062 256.4375 85.578125 249.453125 92.382812 C 242.625 85.75 235.808594 79.511719 229.0625 74.023438 C 211.476562 59.71875 194.375 49.375 178.046875 44.082031 C 161.71875 38.789062 145.472656 38.625 132.128906 46.328125 C 118.785156 54.03125 110.804688 68.171875 107.226562 84.960938 C 103.648438 101.75 104.042969 121.738281 107.636719 144.121094 C 108.886719 151.894531 110.667969 160.050781 112.695312 168.359375 C 105.070312 170.671875 97.667969 173.097656 90.800781 175.78125 C 70.078125 183.875 52.933594 193.554688 40.449219 205.078125 C 27.964844 216.601562 19.902344 230.582031 19.902344 245.9375 C 19.902344 261.292969 27.964844 275.253906 40.449219 286.777344 C 52.933594 298.300781 70.078125 308 90.800781 316.09375 C 98.140625 318.960938 106.089844 321.542969 114.296875 323.984375 C 111.34375 335.011719 108.953125 345.714844 107.324219 355.859375 C 103.726562 378.257812 103.347656 398.253906 106.933594 415.078125 C 110.519531 431.902344 118.503906 446.125 131.914062 453.867188 C 145.324219 461.609375 161.644531 461.417969 178.007812 456.113281 C 194.371094 450.808594 211.503906 440.488281 229.101562 426.171875 C 235.933594 420.613281 242.847656 414.273438 249.765625 407.539062 C 256.71875 414.3125 263.660156 420.683594 270.527344 426.269531 C 288.113281 440.574219 305.234375 450.898438 321.5625 456.191406 C 337.890625 461.484375 354.136719 461.648438 367.480469 453.945312 C 380.824219 446.242188 388.785156 432.101562 392.363281 415.3125 C 395.941406 398.523438 395.546875 378.554688 391.953125 356.171875 C 390.320312 346 387.925781 335.261719 384.960938 324.199219 C 393.4375 321.699219 401.636719 319.046875 409.199219 316.09375 C 429.921875 308 447.066406 298.300781 459.550781 286.777344 C 472.035156 275.253906 480.097656 261.292969 480.097656 245.9375 C 480.097656 230.582031 472.035156 216.601562 459.550781 205.078125 C 447.066406 193.554688 429.921875 183.875 409.199219 175.78125 C 402.234375 173.0625 394.71875 170.601562 386.972656 168.261719 C 389.019531 159.902344 390.832031 151.6875 392.089844 143.867188 C 395.6875 121.46875 396.066406 101.453125 392.480469 84.628906 C 388.894531 67.804688 380.890625 53.601562 367.480469 45.859375 C 360.777344 41.988281 353.34375 40.105469 345.546875 39.84375 Z M 344.628906 60.195312 C 349.523438 60.328125 353.695312 61.492188 357.265625 63.554688 C 364.40625 67.675781 369.683594 75.699219 372.5 88.90625 C 375.316406 102.113281 375.21875 119.953125 371.894531 140.644531 C 370.757812 147.730469 369.105469 155.238281 367.226562 162.929688 C 346.773438 158.007812 324.359375 154.355469 300.46875 152.207031 C 288.476562 135.59375 276.152344 120.457031 263.730469 107.03125 C 270.300781 100.617188 276.832031 94.617188 283.203125 89.433594 C 299.460938 76.210938 314.851562 67.210938 327.695312 63.046875 C 334.117188 60.964844 339.734375 60.0625 344.628906 60.195312 Z M 154.863281 60.253906 C 159.785156 60.117188 165.414062 61.015625 171.855469 63.105469 C 184.738281 67.28125 200.15625 76.277344 216.425781 89.511719 C 222.671875 94.589844 229.054688 100.476562 235.488281 106.738281 C 222.972656 120.273438 210.546875 135.542969 198.476562 152.304688 C 174.6875 154.492188 152.367188 158.164062 132.011719 163.105469 C 130.148438 155.457031 128.496094 147.984375 127.363281 140.9375 C 124.035156 120.226562 123.953125 102.382812 126.777344 89.140625 C 129.601562 75.898438 134.921875 67.8125 142.128906 63.652344 C 145.730469 61.570312 149.941406 60.390625 154.863281 60.253906 Z M 249.765625 121.425781 C 257.910156 130.289062 266.058594 139.992188 274.140625 150.429688 C 266.199219 150.097656 258.164062 149.902344 250 149.902344 C 241.675781 149.902344 233.484375 150.105469 225.390625 150.449219 C 233.472656 140.003906 241.617188 130.296875 249.765625 121.425781 Z M 250 170.097656 C 263.597656 170.097656 276.851562 170.65625 289.746094 171.601562 C 298.617188 184.34375 307.285156 197.859375 315.546875 212.167969 C 322.804688 224.738281 329.375 237.292969 335.351562 249.6875 C 329.308594 262.246094 322.632812 274.96875 315.273438 287.714844 C 308.796875 298.933594 302.03125 309.589844 295.15625 319.863281 C 280.59375 321.082031 265.503906 321.757812 250 321.757812 C 234.125 321.757812 218.695312 321.039062 203.808594 319.765625 C 197.046875 309.640625 190.398438 299.144531 184.023438 288.105469 C 176.683594 275.390625 170.035156 262.691406 164.003906 250.15625 C 170.0625 237.550781 176.738281 224.78125 184.121094 211.992188 C 192.339844 197.761719 200.980469 184.320312 209.804688 171.640625 C 222.835938 170.675781 236.246094 170.097656 250 170.097656 Z M 315.488281 174.101562 C 331.972656 176.160156 347.449219 179.015625 361.855469 182.441406 C 357.582031 196.453125 352.316406 211.089844 345.9375 226.191406 C 341.796875 218.207031 337.507812 210.195312 332.871094 202.167969 C 327.253906 192.4375 321.402344 183.164062 315.488281 174.101562 Z M 183.4375 174.257812 C 177.648438 183.152344 171.949219 192.246094 166.445312 201.777344 C 161.75 209.910156 157.371094 218.027344 153.183594 226.113281 C 146.859375 211.101562 141.625 196.546875 137.382812 182.617188 C 151.679688 179.183594 167.066406 176.339844 183.4375 174.257812 Z M 381.640625 187.753906 C 388.730469 189.898438 395.574219 192.136719 401.855469 194.589844 C 420.957031 202.050781 436.066406 210.886719 445.859375 219.921875 C 455.652344 228.957031 459.902344 237.578125 459.902344 245.9375 C 459.902344 254.296875 455.652344 262.917969 445.859375 271.953125 C 436.066406 280.988281 420.957031 289.824219 401.855469 297.285156 C 394.878906 300.011719 387.210938 302.480469 379.238281 304.824219 C 373.550781 287.238281 366.292969 268.886719 357.65625 250.15625 C 367.585938 228.652344 375.609375 207.683594 381.640625 187.753906 Z M 118.027344 187.851562 C 123.988281 207.582031 131.90625 228.339844 141.699219 249.628906 C 133.003906 268.46875 125.710938 286.921875 120 304.609375 C 112.308594 302.328125 104.902344 299.925781 98.144531 297.285156 C 79.042969 289.824219 63.933594 280.988281 54.140625 271.953125 C 44.347656 262.917969 40.097656 254.296875 40.097656 245.9375 C 40.097656 237.578125 44.347656 228.957031 54.140625 219.921875 C 63.933594 210.886719 79.042969 202.050781 98.144531 194.589844 C 104.328125 192.175781 111.058594 189.96875 118.027344 187.851562 Z M 250 200 C 222.503906 200 200 222.503906 200 250 C 200 277.496094 222.503906 300 250 300 C 277.496094 300 300 277.496094 300 250 C 300 222.503906 277.496094 200 250 200 Z M 153.417969 273.652344 C 157.625 281.777344 162 289.933594 166.71875 298.105469 C 170.410156 304.5 174.179688 310.722656 178.007812 316.835938 C 164.578125 314.972656 151.8125 312.617188 139.824219 309.824219 C 143.636719 298.148438 148.199219 286.027344 153.417969 273.652344 Z M 346.191406 273.652344 C 351.433594 286.058594 355.996094 298.195312 359.824219 309.902344 C 347.796875 312.691406 334.992188 315.039062 321.523438 316.894531 C 325.402344 310.707031 329.230469 304.40625 332.96875 297.929688 C 337.652344 289.816406 342.011719 281.71875 346.191406 273.652344 Z M 134.0625 329.238281 C 152.160156 333.527344 171.777344 336.820312 192.578125 338.964844 C 206.464844 359.046875 220.929688 377.09375 235.488281 392.871094 C 228.976562 399.21875 222.527344 405.175781 216.210938 410.3125 C 199.953125 423.535156 184.542969 432.515625 171.699219 436.679688 C 158.855469 440.84375 149.269531 440.292969 142.128906 436.171875 C 134.988281 432.050781 129.730469 424.027344 126.914062 410.820312 C 124.097656 397.613281 124.175781 379.792969 127.5 359.101562 C 129.007812 349.714844 131.261719 339.664062 134.0625 329.238281 Z M 365.605469 329.316406 C 368.429688 339.804688 370.691406 349.894531 372.207031 359.335938 C 375.535156 380.046875 375.617188 397.890625 372.792969 411.132812 C 369.96875 424.375 364.6875 432.480469 357.480469 436.640625 C 350.273438 440.800781 340.597656 441.34375 327.714844 437.167969 C 314.832031 432.992188 299.414062 423.996094 283.144531 410.761719 C 276.785156 405.589844 270.289062 399.582031 263.730469 393.183594 C 278.386719 377.347656 292.953125 359.207031 306.933594 339.003906 C 327.785156 336.871094 347.457031 333.597656 365.605469 329.316406 Z M 218.671875 341.015625 C 228.941406 341.574219 239.34375 341.953125 250 341.953125 C 260.304688 341.953125 270.371094 341.597656 280.3125 341.074219 C 270.148438 354.785156 259.789062 367.25 249.472656 378.476562 C 239.160156 367.226562 228.820312 354.738281 218.671875 341.015625 Z M 218.671875 341.015625 "/>
</g>
</svg>
